<?xml version="1.0" encoding="utf-8" standalone="no"?>
<!DOCTYPE svg PUBLIC "-//W3C//DTD SVG 1.1//EN"
  "http://www.w3.org/Graphics/SVG/1.1/DTD/svg11.dtd">
<svg xmlns:xlink="http://www.w3.org/1999/xlink" width="370.942187pt" height="234.718125pt" viewBox="0 0 370.942187 234.718125" xmlns="http://www.w3.org/2000/svg" version="1.1">
 <metadata>
  <rdf:RDF xmlns:dc="http://purl.org/dc/elements/1.1/" xmlns:cc="http://creativecommons.org/ns#" xmlns:rdf="http://www.w3.org/1999/02/22-rdf-syntax-ns#">
   <cc:Work>
    <dc:type rdf:resource="http://purl.org/dc/dcmitype/StillImage"/>
    <dc:date>2025-07-11T01:41:15.795664</dc:date>
    <dc:format>image/svg+xml</dc:format>
    <dc:creator>
     <cc:Agent>
      <dc:title>Matplotlib v3.10.0, https://matplotlib.org/</dc:title>
     </cc:Agent>
    </dc:creator>
   </cc:Work>
  </rdf:RDF>
 </metadata>
 <defs>
  <style type="text/css">*{stroke-linejoin: round; stroke-linecap: butt}</style>
 </defs>
 <g id="figure_1">
  <g id="patch_1">
   <path d="M 0 234.718125 
L 370.942187 234.718125 
L 370.942187 0 
L 0 0 
z
" style="fill: #ffffff"/>
  </g>
  <g id="axes_1">
   <g id="patch_2">
    <path d="M 28.942188 188.64 
L 363.742188 188.64 
L 363.742188 22.32 
L 28.942188 22.32 
z
" style="fill: #ffffff"/>
   </g>
   <g id="matplotlib.axis_1">
    <g id="xtick_1">
     <g id="line2d_1">
      <defs>
       <path id="m56b2d642a1" d="M 0 0 
L 0 3.5 
" style="stroke: #000000; stroke-width: 0.8"/>
      </defs>
      <g>
       <use xlink:href="#m56b2d642a1" x="44.160369" y="188.64" style="stroke: #000000; stroke-width: 0.8"/>
      </g>
     </g>
     <g id="text_1">
      <!-- 0 -->
      <g transform="translate(40.979119 203.238438) scale(0.1 -0.1)">
       <defs>
        <path id="DejaVuSans-30" d="M 2034 4250 
Q 1547 4250 1301 3770 
Q 1056 3291 1056 2328 
Q 1056 1369 1301 889 
Q 1547 409 2034 409 
Q 2525 409 2770 889 
Q 3016 1369 3016 2328 
Q 3016 3291 2770 3770 
Q 2525 4250 2034 4250 
z
M 2034 4750 
Q 2819 4750 3233 4129 
Q 3647 3509 3647 2328 
Q 3647 1150 3233 529 
Q 2819 -91 2034 -91 
Q 1250 -91 836 529 
Q 422 1150 422 2328 
Q 422 3509 836 4129 
Q 1250 4750 2034 4750 
z
" transform="scale(0.015625)"/>
       </defs>
       <use xlink:href="#DejaVuSans-30"/>
      </g>
     </g>
    </g>
    <g id="xtick_2">
     <g id="line2d_2">
      <g>
       <use xlink:href="#m56b2d642a1" x="120.251278" y="188.64" style="stroke: #000000; stroke-width: 0.8"/>
      </g>
     </g>
     <g id="text_2">
      <!-- $\dfrac{\pi}{2}$ -->
      <g transform="translate(116.401278 205.74) scale(0.1 -0.1)">
       <defs>
        <path id="DejaVuSans-Oblique-3c0" d="M 584 3500 
L 3938 3500 
L 3825 2925 
L 3384 2925 
L 2966 775 
Q 2922 550 2981 450 
Q 3038 353 3209 353 
Q 3256 353 3325 363 
Q 3397 369 3419 372 
L 3338 -44 
Q 3222 -84 3103 -103 
Q 2981 -122 2866 -122 
Q 2491 -122 2388 81 
Q 2284 288 2391 838 
L 2797 2925 
L 1506 2925 
L 938 0 
L 350 0 
L 919 2925 
L 472 2925 
L 584 3500 
z
" transform="scale(0.015625)"/>
        <path id="DejaVuSans-32" d="M 1228 531 
L 3431 531 
L 3431 0 
L 469 0 
L 469 531 
Q 828 903 1448 1529 
Q 2069 2156 2228 2338 
Q 2531 2678 2651 2914 
Q 2772 3150 2772 3378 
Q 2772 3750 2511 3984 
Q 2250 4219 1831 4219 
Q 1534 4219 1204 4116 
Q 875 4013 500 3803 
L 500 4441 
Q 881 4594 1212 4672 
Q 1544 4750 1819 4750 
Q 2544 4750 2975 4387 
Q 3406 4025 3406 3419 
Q 3406 3131 3298 2873 
Q 3191 2616 2906 2266 
Q 2828 2175 2409 1742 
Q 1991 1309 1228 531 
z
" transform="scale(0.015625)"/>
       </defs>
       <use xlink:href="#DejaVuSans-Oblique-3c0" transform="translate(2 46.3125)"/>
       <use xlink:href="#DejaVuSans-32" transform="translate(0 -61.0625)"/>
       <path d="M 0 19.40625 
L 0 25.65625 
L 63.623047 25.65625 
L 63.623047 19.40625 
L 0 19.40625 
z
"/>
      </g>
     </g>
    </g>
    <g id="xtick_3">
     <g id="line2d_3">
      <g>
       <use xlink:href="#m56b2d642a1" x="196.342188" y="188.64" style="stroke: #000000; stroke-width: 0.8"/>
      </g>
     </g>
     <g id="text_3">
      <!-- $\pi$ -->
      <g transform="translate(193.292188 203.238438) scale(0.1 -0.1)">
       <use xlink:href="#DejaVuSans-Oblique-3c0" transform="translate(0 0.3125)"/>
      </g>
     </g>
    </g>
    <g id="xtick_4">
     <g id="line2d_4">
      <g>
       <use xlink:href="#m56b2d642a1" x="272.433097" y="188.64" style="stroke: #000000; stroke-width: 0.8"/>
      </g>
     </g>
     <g id="text_4">
      <!-- $\dfrac{3\pi}{2}$ -->
      <g transform="translate(265.583097 207.64) scale(0.1 -0.1)">
       <defs>
        <path id="DejaVuSans-33" d="M 2597 2516 
Q 3050 2419 3304 2112 
Q 3559 1806 3559 1356 
Q 3559 666 3084 287 
Q 2609 -91 1734 -91 
Q 1441 -91 1130 -33 
Q 819 25 488 141 
L 488 750 
Q 750 597 1062 519 
Q 1375 441 1716 441 
Q 2309 441 2620 675 
Q 2931 909 2931 1356 
Q 2931 1769 2642 2001 
Q 2353 2234 1838 2234 
L 1294 2234 
L 1294 2753 
L 1863 2753 
Q 2328 2753 2575 2939 
Q 2822 3125 2822 3475 
Q 2822 3834 2567 4026 
Q 2313 4219 1838 4219 
Q 1578 4219 1281 4162 
Q 984 4106 628 3988 
L 628 4550 
Q 988 4650 1302 4700 
Q 1616 4750 1894 4750 
Q 2613 4750 3031 4423 
Q 3450 4097 3450 3541 
Q 3450 3153 3228 2886 
Q 3006 2619 2597 2516 
z
" transform="scale(0.015625)"/>
       </defs>
       <use xlink:href="#DejaVuSans-33" transform="translate(0 45.78125)"/>
       <use xlink:href="#DejaVuSans-Oblique-3c0" transform="translate(63.623047 45.78125)"/>
       <use xlink:href="#DejaVuSans-32" transform="translate(30 -61.59375)"/>
       <path d="M 0 18.875 
L 0 25.125 
L 123.828125 25.125 
L 123.828125 18.875 
L 0 18.875 
z
"/>
      </g>
     </g>
    </g>
    <g id="xtick_5">
     <g id="line2d_5">
      <g>
       <use xlink:href="#m56b2d642a1" x="348.524006" y="188.64" style="stroke: #000000; stroke-width: 0.8"/>
      </g>
     </g>
     <g id="text_5">
      <!-- $2\pi$ -->
      <g transform="translate(342.324006 203.238438) scale(0.1 -0.1)">
       <use xlink:href="#DejaVuSans-32" transform="translate(0 0.78125)"/>
       <use xlink:href="#DejaVuSans-Oblique-3c0" transform="translate(63.623047 0.78125)"/>
      </g>
     </g>
    </g>
    <g id="text_6">
     <!-- $\theta$ (rad) -->
     <g transform="translate(179.492188 225.438438) scale(0.1 -0.1)">
      <defs>
       <path id="DejaVuSans-Oblique-3b8" d="M 2913 2219 
L 925 2219 
Q 791 1284 928 888 
Q 1100 400 1566 400 
Q 2034 400 2391 891 
Q 2703 1322 2913 2219 
z
M 3009 2750 
Q 3094 3638 2984 3950 
Q 2813 4444 2353 4444 
Q 1875 4444 1525 3956 
Q 1250 3563 1034 2750 
L 3009 2750 
z
M 2444 4913 
Q 3194 4913 3494 4250 
Q 3794 3591 3566 2422 
Q 3341 1256 2781 594 
Q 2225 -72 1475 -72 
Q 722 -72 425 594 
Q 128 1256 353 2422 
Q 581 3591 1134 4250 
Q 1691 4913 2444 4913 
z
" transform="scale(0.015625)"/>
       <path id="DejaVuSans-20" transform="scale(0.015625)"/>
       <path id="DejaVuSans-28" d="M 1984 4856 
Q 1566 4138 1362 3434 
Q 1159 2731 1159 2009 
Q 1159 1288 1364 580 
Q 1569 -128 1984 -844 
L 1484 -844 
Q 1016 -109 783 600 
Q 550 1309 550 2009 
Q 550 2706 781 3412 
Q 1013 4119 1484 4856 
L 1984 4856 
z
" transform="scale(0.015625)"/>
       <path id="DejaVuSans-72" d="M 2631 2963 
Q 2534 3019 2420 3045 
Q 2306 3072 2169 3072 
Q 1681 3072 1420 2755 
Q 1159 2438 1159 1844 
L 1159 0 
L 581 0 
L 581 3500 
L 1159 3500 
L 1159 2956 
Q 1341 3275 1631 3429 
Q 1922 3584 2338 3584 
Q 2397 3584 2469 3576 
Q 2541 3569 2628 3553 
L 2631 2963 
z
" transform="scale(0.015625)"/>
       <path id="DejaVuSans-61" d="M 2194 1759 
Q 1497 1759 1228 1600 
Q 959 1441 959 1056 
Q 959 750 1161 570 
Q 1363 391 1709 391 
Q 2188 391 2477 730 
Q 2766 1069 2766 1631 
L 2766 1759 
L 2194 1759 
z
M 3341 1997 
L 3341 0 
L 2766 0 
L 2766 531 
Q 2569 213 2275 61 
Q 1981 -91 1556 -91 
Q 1019 -91 701 211 
Q 384 513 384 1019 
Q 384 1609 779 1909 
Q 1175 2209 1959 2209 
L 2766 2209 
L 2766 2266 
Q 2766 2663 2505 2880 
Q 2244 3097 1772 3097 
Q 1472 3097 1187 3025 
Q 903 2953 641 2809 
L 641 3341 
Q 956 3463 1253 3523 
Q 1550 3584 1831 3584 
Q 2591 3584 2966 3190 
Q 3341 2797 3341 1997 
z
" transform="scale(0.015625)"/>
       <path id="DejaVuSans-64" d="M 2906 2969 
L 2906 4863 
L 3481 4863 
L 3481 0 
L 2906 0 
L 2906 525 
Q 2725 213 2448 61 
Q 2172 -91 1784 -91 
Q 1150 -91 751 415 
Q 353 922 353 1747 
Q 353 2572 751 3078 
Q 1150 3584 1784 3584 
Q 2172 3584 2448 3432 
Q 2725 3281 2906 2969 
z
M 947 1747 
Q 947 1113 1208 752 
Q 1469 391 1925 391 
Q 2381 391 2643 752 
Q 2906 1113 2906 1747 
Q 2906 2381 2643 2742 
Q 2381 3103 1925 3103 
Q 1469 3103 1208 2742 
Q 947 2381 947 1747 
z
" transform="scale(0.015625)"/>
       <path id="DejaVuSans-29" d="M 513 4856 
L 1013 4856 
Q 1481 4119 1714 3412 
Q 1947 2706 1947 2009 
Q 1947 1309 1714 600 
Q 1481 -109 1013 -844 
L 513 -844 
Q 928 -128 1133 580 
Q 1338 1288 1338 2009 
Q 1338 2731 1133 3434 
Q 928 4138 513 4856 
z
" transform="scale(0.015625)"/>
      </defs>
      <use xlink:href="#DejaVuSans-Oblique-3b8" transform="translate(0 0.234375)"/>
      <use xlink:href="#DejaVuSans-20" transform="translate(61.181641 0.234375)"/>
      <use xlink:href="#DejaVuSans-28" transform="translate(92.96875 0.234375)"/>
      <use xlink:href="#DejaVuSans-72" transform="translate(131.982422 0.234375)"/>
      <use xlink:href="#DejaVuSans-61" transform="translate(173.095703 0.234375)"/>
      <use xlink:href="#DejaVuSans-64" transform="translate(234.375 0.234375)"/>
      <use xlink:href="#DejaVuSans-29" transform="translate(297.851562 0.234375)"/>
     </g>
    </g>
   </g>
   <g id="matplotlib.axis_2">
    <g id="ytick_1">
     <g id="line2d_6">
      <defs>
       <path id="md5a85958ae" d="M 0 0 
L -3.5 0 
" style="stroke: #000000; stroke-width: 0.8"/>
      </defs>
      <g>
       <use xlink:href="#md5a85958ae" x="28.942188" y="181.118071" style="stroke: #000000; stroke-width: 0.8"/>
      </g>
     </g>
     <g id="text_7">
      <!-- −3 -->
      <g transform="translate(7.2 184.91729) scale(0.1 -0.1)">
       <defs>
        <path id="DejaVuSans-2212" d="M 678 2272 
L 4684 2272 
L 4684 1741 
L 678 1741 
L 678 2272 
z
" transform="scale(0.015625)"/>
       </defs>
       <use xlink:href="#DejaVuSans-2212"/>
       <use xlink:href="#DejaVuSans-33" transform="translate(83.789062 0)"/>
      </g>
     </g>
    </g>
    <g id="ytick_2">
     <g id="line2d_7">
      <g>
       <use xlink:href="#md5a85958ae" x="28.942188" y="143.308553" style="stroke: #000000; stroke-width: 0.8"/>
      </g>
     </g>
     <g id="text_8">
      <!-- −2 -->
      <g transform="translate(7.2 147.107772) scale(0.1 -0.1)">
       <use xlink:href="#DejaVuSans-2212"/>
       <use xlink:href="#DejaVuSans-32" transform="translate(83.789062 0)"/>
      </g>
     </g>
    </g>
    <g id="ytick_3">
     <g id="line2d_8">
      <g>
       <use xlink:href="#md5a85958ae" x="28.942188" y="105.499035" style="stroke: #000000; stroke-width: 0.8"/>
      </g>
     </g>
     <g id="text_9">
      <!-- −1 -->
      <g transform="translate(7.2 109.298254) scale(0.1 -0.1)">
       <defs>
        <path id="DejaVuSans-31" d="M 794 531 
L 1825 531 
L 1825 4091 
L 703 3866 
L 703 4441 
L 1819 4666 
L 2450 4666 
L 2450 531 
L 3481 531 
L 3481 0 
L 794 0 
L 794 531 
z
" transform="scale(0.015625)"/>
       </defs>
       <use xlink:href="#DejaVuSans-2212"/>
       <use xlink:href="#DejaVuSans-31" transform="translate(83.789062 0)"/>
      </g>
     </g>
    </g>
    <g id="ytick_4">
     <g id="line2d_9">
      <g>
       <use xlink:href="#md5a85958ae" x="28.942188" y="67.689518" style="stroke: #000000; stroke-width: 0.8"/>
      </g>
     </g>
     <g id="text_10">
      <!-- 0 -->
      <g transform="translate(15.579688 71.488736) scale(0.1 -0.1)">
       <use xlink:href="#DejaVuSans-30"/>
      </g>
     </g>
    </g>
    <g id="ytick_5">
     <g id="line2d_10">
      <g>
       <use xlink:href="#md5a85958ae" x="28.942188" y="29.88" style="stroke: #000000; stroke-width: 0.8"/>
      </g>
     </g>
     <g id="text_11">
      <!-- 1 -->
      <g transform="translate(15.579688 33.679219) scale(0.1 -0.1)">
       <use xlink:href="#DejaVuSans-31"/>
      </g>
     </g>
    </g>
   </g>
   <g id="line2d_11">
    <path d="M 44.160369 29.88 
L 47.234749 30.488369 
L 50.30913 32.303688 
L 53.38351 35.296748 
L 56.45789 39.419388 
L 59.53227 44.605275 
L 62.60665 50.770966 
L 65.68103 57.817251 
L 68.755411 65.630754 
L 71.829791 74.085753 
L 74.904171 83.046203 
L 77.978551 92.367928 
L 81.052931 101.900937 
L 84.127311 111.491841 
L 87.201692 120.986318 
L 90.276072 130.231599 
L 93.350452 139.078924 
L 96.424832 147.385936 
L 99.499212 155.018973 
L 102.573592 161.855214 
L 105.647973 167.784664 
L 108.722353 172.711915 
L 111.796733 176.557685 
L 114.871113 179.260095 
L 117.945493 180.775662 
L 121.019873 181.08 
L 124.094254 180.168212 
L 127.168634 178.054969 
L 130.243014 174.774273 
L 133.317394 170.378914 
L 136.391774 164.939612 
L 139.466154 158.54389 
L 142.540535 151.294656 
L 145.614915 143.308553 
L 148.689295 134.714081 
L 151.763675 125.649528 
L 154.838055 116.260746 
L 157.912435 106.698804 
L 160.986816 97.117558 
L 164.061196 87.671172 
L 167.135576 78.511644 
L 170.209956 69.786352 
L 173.284336 61.635691 
L 176.358716 54.190808 
L 179.433097 47.571494 
L 182.507477 41.884255 
L 185.581857 37.220602 
L 188.656237 33.655574 
L 191.730617 31.246534 
L 194.804997 30.032246 
L 197.879378 30.032246 
L 200.953758 31.246534 
L 204.028138 33.655574 
L 207.102518 37.220602 
L 210.176898 41.884255 
L 213.251278 47.571494 
L 216.325659 54.190808 
L 219.400039 61.635691 
L 222.474419 69.786352 
L 225.548799 78.511644 
L 228.623179 87.671172 
L 231.697559 97.117558 
L 234.77194 106.698804 
L 237.84632 116.260746 
L 240.9207 125.649528 
L 243.99508 134.714081 
L 247.06946 143.308553 
L 250.14384 151.294656 
L 253.218221 158.54389 
L 256.292601 164.939612 
L 259.366981 170.378914 
L 262.441361 174.774273 
L 265.515741 178.054969 
L 268.590121 180.168212 
L 271.664502 181.08 
L 274.738882 180.775662 
L 277.813262 179.260095 
L 280.887642 176.557685 
L 283.962022 172.711915 
L 287.036402 167.784664 
L 290.110783 161.855214 
L 293.185163 155.018973 
L 296.259543 147.385936 
L 299.333923 139.078924 
L 302.408303 130.231599 
L 305.482683 120.986318 
L 308.557064 111.491841 
L 311.631444 101.900937 
L 314.705824 92.367928 
L 317.780204 83.046203 
L 320.854584 74.085753 
L 323.928964 65.630754 
L 327.003345 57.817251 
L 330.077725 50.770966 
L 333.152105 44.605275 
L 336.226485 39.419388 
L 339.300865 35.296748 
L 342.375245 32.303688 
L 345.449626 30.488369 
L 348.524006 29.88 
" clip-path="url(#pcd67b93fb2)" style="fill: none; stroke: #000000; stroke-width: 1.5; stroke-linecap: square"/>
   </g>
   <g id="line2d_12">
    <path d="M 44.583097 29.891395 
L 46.274006 30.164696 
L 47.964915 30.801103 
L 49.655824 31.797517 
L 51.346733 33.149082 
L 53.037642 34.849215 
L 54.728551 36.889631 
L 56.41946 39.260391 
L 58.110369 41.949945 
L 59.801278 44.945188 
L 62.337642 49.978911 
L 64.874006 55.612121 
L 67.410369 61.783099 
L 70.792187 70.729982 
L 74.174006 80.337967 
L 79.246733 95.577798 
L 90.237642 129.053065 
L 93.61946 138.661049 
L 97.001278 147.607933 
L 99.537642 153.778911 
L 102.074006 159.412121 
L 104.610369 164.445844 
L 107.146733 168.82493 
L 108.837642 171.356629 
L 110.528551 173.563562 
L 112.21946 175.434976 
L 113.910369 176.961755 
L 115.601278 178.13646 
L 117.292187 178.953368 
L 118.983097 179.4085 
L 120.674006 179.499637 
L 122.364915 179.226336 
L 124.055824 178.589929 
L 125.746733 177.593515 
L 127.437642 176.24195 
L 129.128551 174.541817 
L 130.81946 172.501401 
L 132.510369 170.130641 
L 134.201278 167.441087 
L 135.892187 164.445844 
L 138.428551 159.412121 
L 140.964915 153.778911 
L 143.501278 147.607933 
L 146.883097 138.661049 
L 150.264915 129.053065 
L 155.337642 113.813234 
L 166.328551 80.337967 
L 169.710369 70.729982 
L 173.092188 61.783099 
L 175.628551 55.612121 
L 178.164915 49.978911 
L 180.701278 44.945188 
L 183.237642 40.566102 
L 184.928551 38.034403 
L 186.61946 35.82747 
L 188.310369 33.956056 
L 190.001278 32.429277 
L 191.692187 31.254572 
L 193.383097 30.437664 
L 195.074006 29.982532 
L 196.764915 29.891395 
L 198.455824 30.164696 
L 200.146733 30.801103 
L 201.837642 31.797517 
L 203.528551 33.149082 
L 205.21946 34.849215 
L 206.910369 36.889631 
L 208.601278 39.260391 
L 210.292188 41.949945 
L 211.983097 44.945188 
L 214.51946 49.978911 
L 217.055824 55.612121 
L 219.592188 61.783099 
L 222.974006 70.729982 
L 226.355824 80.337967 
L 231.428551 95.577798 
L 242.41946 129.053065 
L 245.801278 138.661049 
L 249.183097 147.607933 
L 251.71946 153.778911 
L 254.255824 159.412121 
L 256.792188 164.445844 
L 259.328551 168.82493 
L 261.01946 171.356629 
L 262.710369 173.563562 
L 264.401278 175.434976 
L 266.092188 176.961755 
L 267.783097 178.13646 
L 269.474006 178.953368 
L 271.164915 179.4085 
L 272.855824 179.499637 
L 274.546733 179.226336 
L 276.237642 178.589929 
L 277.928551 177.593515 
L 279.61946 176.24195 
L 281.310369 174.541817 
L 283.001278 172.501401 
L 284.692187 170.130641 
L 286.383097 167.441087 
L 288.074006 164.445844 
L 290.610369 159.412121 
L 293.146733 153.778911 
L 295.683097 147.607933 
L 299.064915 138.661049 
L 302.446733 129.053065 
L 307.51946 113.813234 
L 318.510369 80.337967 
L 321.892188 70.729982 
L 325.274006 61.783099 
L 327.810369 55.612121 
L 330.346733 49.978911 
L 332.883097 44.945188 
L 335.41946 40.566102 
L 337.110369 38.034403 
L 338.801278 35.82747 
L 340.492188 33.956056 
L 342.183097 32.429277 
L 343.874006 31.254572 
L 345.564915 30.437664 
L 347.255824 29.982532 
L 348.101278 29.891395 
L 348.101278 29.891395 
" clip-path="url(#pcd67b93fb2)" style="fill: none; stroke-dasharray: 9.6,2.4,1.5,2.4; stroke-dashoffset: 0; stroke: #ff0000; stroke-width: 1.5"/>
   </g>
   <g id="patch_3">
    <path d="M 28.942188 188.64 
L 28.942188 22.32 
" style="fill: none; stroke: #000000; stroke-width: 0.8; stroke-linejoin: miter; stroke-linecap: square"/>
   </g>
   <g id="patch_4">
    <path d="M 363.742188 188.64 
L 363.742188 22.32 
" style="fill: none; stroke: #000000; stroke-width: 0.8; stroke-linejoin: miter; stroke-linecap: square"/>
   </g>
   <g id="patch_5">
    <path d="M 28.942188 188.64 
L 363.742188 188.64 
" style="fill: none; stroke: #000000; stroke-width: 0.8; stroke-linejoin: miter; stroke-linecap: square"/>
   </g>
   <g id="patch_6">
    <path d="M 28.942188 22.32 
L 363.742188 22.32 
" style="fill: none; stroke: #000000; stroke-width: 0.8; stroke-linejoin: miter; stroke-linecap: square"/>
   </g>
   <g id="text_12">
    <!-- Pressure coefficient $C_p$ -->
    <g transform="translate(128.122188 16.32) scale(0.12 -0.12)">
     <defs>
      <path id="DejaVuSans-50" d="M 1259 4147 
L 1259 2394 
L 2053 2394 
Q 2494 2394 2734 2622 
Q 2975 2850 2975 3272 
Q 2975 3691 2734 3919 
Q 2494 4147 2053 4147 
L 1259 4147 
z
M 628 4666 
L 2053 4666 
Q 2838 4666 3239 4311 
Q 3641 3956 3641 3272 
Q 3641 2581 3239 2228 
Q 2838 1875 2053 1875 
L 1259 1875 
L 1259 0 
L 628 0 
L 628 4666 
z
" transform="scale(0.015625)"/>
      <path id="DejaVuSans-65" d="M 3597 1894 
L 3597 1613 
L 953 1613 
Q 991 1019 1311 708 
Q 1631 397 2203 397 
Q 2534 397 2845 478 
Q 3156 559 3463 722 
L 3463 178 
Q 3153 47 2828 -22 
Q 2503 -91 2169 -91 
Q 1331 -91 842 396 
Q 353 884 353 1716 
Q 353 2575 817 3079 
Q 1281 3584 2069 3584 
Q 2775 3584 3186 3129 
Q 3597 2675 3597 1894 
z
M 3022 2063 
Q 3016 2534 2758 2815 
Q 2500 3097 2075 3097 
Q 1594 3097 1305 2825 
Q 1016 2553 972 2059 
L 3022 2063 
z
" transform="scale(0.015625)"/>
      <path id="DejaVuSans-73" d="M 2834 3397 
L 2834 2853 
Q 2591 2978 2328 3040 
Q 2066 3103 1784 3103 
Q 1356 3103 1142 2972 
Q 928 2841 928 2578 
Q 928 2378 1081 2264 
Q 1234 2150 1697 2047 
L 1894 2003 
Q 2506 1872 2764 1633 
Q 3022 1394 3022 966 
Q 3022 478 2636 193 
Q 2250 -91 1575 -91 
Q 1294 -91 989 -36 
Q 684 19 347 128 
L 347 722 
Q 666 556 975 473 
Q 1284 391 1588 391 
Q 1994 391 2212 530 
Q 2431 669 2431 922 
Q 2431 1156 2273 1281 
Q 2116 1406 1581 1522 
L 1381 1569 
Q 847 1681 609 1914 
Q 372 2147 372 2553 
Q 372 3047 722 3315 
Q 1072 3584 1716 3584 
Q 2034 3584 2315 3537 
Q 2597 3491 2834 3397 
z
" transform="scale(0.015625)"/>
      <path id="DejaVuSans-75" d="M 544 1381 
L 544 3500 
L 1119 3500 
L 1119 1403 
Q 1119 906 1312 657 
Q 1506 409 1894 409 
Q 2359 409 2629 706 
Q 2900 1003 2900 1516 
L 2900 3500 
L 3475 3500 
L 3475 0 
L 2900 0 
L 2900 538 
Q 2691 219 2414 64 
Q 2138 -91 1772 -91 
Q 1169 -91 856 284 
Q 544 659 544 1381 
z
M 1991 3584 
L 1991 3584 
z
" transform="scale(0.015625)"/>
      <path id="DejaVuSans-63" d="M 3122 3366 
L 3122 2828 
Q 2878 2963 2633 3030 
Q 2388 3097 2138 3097 
Q 1578 3097 1268 2742 
Q 959 2388 959 1747 
Q 959 1106 1268 751 
Q 1578 397 2138 397 
Q 2388 397 2633 464 
Q 2878 531 3122 666 
L 3122 134 
Q 2881 22 2623 -34 
Q 2366 -91 2075 -91 
Q 1284 -91 818 406 
Q 353 903 353 1747 
Q 353 2603 823 3093 
Q 1294 3584 2113 3584 
Q 2378 3584 2631 3529 
Q 2884 3475 3122 3366 
z
" transform="scale(0.015625)"/>
      <path id="DejaVuSans-6f" d="M 1959 3097 
Q 1497 3097 1228 2736 
Q 959 2375 959 1747 
Q 959 1119 1226 758 
Q 1494 397 1959 397 
Q 2419 397 2687 759 
Q 2956 1122 2956 1747 
Q 2956 2369 2687 2733 
Q 2419 3097 1959 3097 
z
M 1959 3584 
Q 2709 3584 3137 3096 
Q 3566 2609 3566 1747 
Q 3566 888 3137 398 
Q 2709 -91 1959 -91 
Q 1206 -91 779 398 
Q 353 888 353 1747 
Q 353 2609 779 3096 
Q 1206 3584 1959 3584 
z
" transform="scale(0.015625)"/>
      <path id="DejaVuSans-66" d="M 2375 4863 
L 2375 4384 
L 1825 4384 
Q 1516 4384 1395 4259 
Q 1275 4134 1275 3809 
L 1275 3500 
L 2222 3500 
L 2222 3053 
L 1275 3053 
L 1275 0 
L 697 0 
L 697 3053 
L 147 3053 
L 147 3500 
L 697 3500 
L 697 3744 
Q 697 4328 969 4595 
Q 1241 4863 1831 4863 
L 2375 4863 
z
" transform="scale(0.015625)"/>
      <path id="DejaVuSans-69" d="M 603 3500 
L 1178 3500 
L 1178 0 
L 603 0 
L 603 3500 
z
M 603 4863 
L 1178 4863 
L 1178 4134 
L 603 4134 
L 603 4863 
z
" transform="scale(0.015625)"/>
      <path id="DejaVuSans-6e" d="M 3513 2113 
L 3513 0 
L 2938 0 
L 2938 2094 
Q 2938 2591 2744 2837 
Q 2550 3084 2163 3084 
Q 1697 3084 1428 2787 
Q 1159 2491 1159 1978 
L 1159 0 
L 581 0 
L 581 3500 
L 1159 3500 
L 1159 2956 
Q 1366 3272 1645 3428 
Q 1925 3584 2291 3584 
Q 2894 3584 3203 3211 
Q 3513 2838 3513 2113 
z
" transform="scale(0.015625)"/>
      <path id="DejaVuSans-74" d="M 1172 4494 
L 1172 3500 
L 2356 3500 
L 2356 3053 
L 1172 3053 
L 1172 1153 
Q 1172 725 1289 603 
Q 1406 481 1766 481 
L 2356 481 
L 2356 0 
L 1766 0 
Q 1100 0 847 248 
Q 594 497 594 1153 
L 594 3053 
L 172 3053 
L 172 3500 
L 594 3500 
L 594 4494 
L 1172 4494 
z
" transform="scale(0.015625)"/>
      <path id="DejaVuSans-Oblique-43" d="M 4447 4306 
L 4319 3641 
Q 4019 3944 3683 4091 
Q 3347 4238 2956 4238 
Q 2422 4238 2017 3981 
Q 1613 3725 1319 3200 
Q 1131 2863 1032 2486 
Q 934 2109 934 1728 
Q 934 1091 1264 756 
Q 1594 422 2222 422 
Q 2656 422 3056 561 
Q 3456 700 3834 978 
L 3688 231 
Q 3316 72 2936 -9 
Q 2556 -91 2175 -91 
Q 1278 -91 773 396 
Q 269 884 269 1753 
Q 269 2309 461 2846 
Q 653 3384 1013 3828 
Q 1394 4300 1883 4525 
Q 2372 4750 3022 4750 
Q 3422 4750 3780 4639 
Q 4138 4528 4447 4306 
z
" transform="scale(0.015625)"/>
      <path id="DejaVuSans-Oblique-70" d="M 3175 2156 
Q 3175 2616 2975 2859 
Q 2775 3103 2400 3103 
Q 2144 3103 1911 2972 
Q 1678 2841 1497 2591 
Q 1319 2344 1212 1994 
Q 1106 1644 1106 1300 
Q 1106 863 1306 627 
Q 1506 391 1875 391 
Q 2147 391 2380 519 
Q 2613 647 2778 891 
Q 2956 1147 3065 1494 
Q 3175 1841 3175 2156 
z
M 1394 2969 
Q 1625 3272 1939 3428 
Q 2253 3584 2638 3584 
Q 3175 3584 3472 3232 
Q 3769 2881 3769 2247 
Q 3769 1728 3584 1258 
Q 3400 788 3053 416 
Q 2822 169 2531 39 
Q 2241 -91 1919 -91 
Q 1547 -91 1294 64 
Q 1041 219 916 525 
L 556 -1331 
L -19 -1331 
L 922 3500 
L 1497 3500 
L 1394 2969 
z
" transform="scale(0.015625)"/>
     </defs>
     <use xlink:href="#DejaVuSans-50" transform="translate(0 0.015625)"/>
     <use xlink:href="#DejaVuSans-72" transform="translate(60.302734 0.015625)"/>
     <use xlink:href="#DejaVuSans-65" transform="translate(101.416016 0.015625)"/>
     <use xlink:href="#DejaVuSans-73" transform="translate(162.939453 0.015625)"/>
     <use xlink:href="#DejaVuSans-73" transform="translate(215.039062 0.015625)"/>
     <use xlink:href="#DejaVuSans-75" transform="translate(267.138672 0.015625)"/>
     <use xlink:href="#DejaVuSans-72" transform="translate(330.517578 0.015625)"/>
     <use xlink:href="#DejaVuSans-65" transform="translate(371.630859 0.015625)"/>
     <use xlink:href="#DejaVuSans-20" transform="translate(433.154297 0.015625)"/>
     <use xlink:href="#DejaVuSans-63" transform="translate(464.941406 0.015625)"/>
     <use xlink:href="#DejaVuSans-6f" transform="translate(519.921875 0.015625)"/>
     <use xlink:href="#DejaVuSans-65" transform="translate(581.103516 0.015625)"/>
     <use xlink:href="#DejaVuSans-66" transform="translate(642.626953 0.015625)"/>
     <use xlink:href="#DejaVuSans-66" transform="translate(677.832031 0.015625)"/>
     <use xlink:href="#DejaVuSans-69" transform="translate(713.037109 0.015625)"/>
     <use xlink:href="#DejaVuSans-63" transform="translate(740.820312 0.015625)"/>
     <use xlink:href="#DejaVuSans-69" transform="translate(795.800781 0.015625)"/>
     <use xlink:href="#DejaVuSans-65" transform="translate(823.583984 0.015625)"/>
     <use xlink:href="#DejaVuSans-6e" transform="translate(885.107422 0.015625)"/>
     <use xlink:href="#DejaVuSans-74" transform="translate(948.486328 0.015625)"/>
     <use xlink:href="#DejaVuSans-20" transform="translate(987.695312 0.015625)"/>
     <use xlink:href="#DejaVuSans-Oblique-43" transform="translate(1019.482422 0.015625)"/>
     <use xlink:href="#DejaVuSans-Oblique-70" transform="translate(1089.306641 -16.390625) scale(0.7)"/>
    </g>
   </g>
   <g id="legend_1">
    <g id="patch_7">
     <path d="M 146.473437 183.64 
L 246.210938 183.64 
Q 248.210938 183.64 248.210938 181.64 
L 248.210938 153.28375 
Q 248.210938 151.28375 246.210938 151.28375 
L 146.473437 151.28375 
Q 144.473437 151.28375 144.473437 153.28375 
L 144.473437 181.64 
Q 144.473437 183.64 146.473437 183.64 
z
" style="fill: #ffffff; opacity: 0.8; stroke: #cccccc; stroke-linejoin: miter"/>
    </g>
    <g id="line2d_13">
     <path d="M 148.473437 159.382188 
L 158.473437 159.382188 
L 168.473437 159.382188 
" style="fill: none; stroke: #000000; stroke-width: 1.5; stroke-linecap: square"/>
    </g>
    <g id="text_13">
     <!-- Analytical -->
     <g transform="translate(176.473437 162.882188) scale(0.1 -0.1)">
      <defs>
       <path id="DejaVuSans-41" d="M 2188 4044 
L 1331 1722 
L 3047 1722 
L 2188 4044 
z
M 1831 4666 
L 2547 4666 
L 4325 0 
L 3669 0 
L 3244 1197 
L 1141 1197 
L 716 0 
L 50 0 
L 1831 4666 
z
" transform="scale(0.015625)"/>
       <path id="DejaVuSans-6c" d="M 603 4863 
L 1178 4863 
L 1178 0 
L 603 0 
L 603 4863 
z
" transform="scale(0.015625)"/>
       <path id="DejaVuSans-79" d="M 2059 -325 
Q 1816 -950 1584 -1140 
Q 1353 -1331 966 -1331 
L 506 -1331 
L 506 -850 
L 844 -850 
Q 1081 -850 1212 -737 
Q 1344 -625 1503 -206 
L 1606 56 
L 191 3500 
L 800 3500 
L 1894 763 
L 2988 3500 
L 3597 3500 
L 2059 -325 
z
" transform="scale(0.015625)"/>
      </defs>
      <use xlink:href="#DejaVuSans-41"/>
      <use xlink:href="#DejaVuSans-6e" transform="translate(68.408203 0)"/>
      <use xlink:href="#DejaVuSans-61" transform="translate(131.787109 0)"/>
      <use xlink:href="#DejaVuSans-6c" transform="translate(193.066406 0)"/>
      <use xlink:href="#DejaVuSans-79" transform="translate(220.849609 0)"/>
      <use xlink:href="#DejaVuSans-74" transform="translate(280.029297 0)"/>
      <use xlink:href="#DejaVuSans-69" transform="translate(319.238281 0)"/>
      <use xlink:href="#DejaVuSans-63" transform="translate(347.021484 0)"/>
      <use xlink:href="#DejaVuSans-61" transform="translate(402.001953 0)"/>
      <use xlink:href="#DejaVuSans-6c" transform="translate(463.28125 0)"/>
     </g>
    </g>
    <g id="line2d_14">
     <path d="M 148.473437 174.060313 
L 158.473437 174.060313 
L 168.473437 174.060313 
" style="fill: none; stroke-dasharray: 9.6,2.4,1.5,2.4; stroke-dashoffset: 0; stroke: #ff0000; stroke-width: 1.5"/>
    </g>
    <g id="text_14">
     <!-- BEM (N=360) -->
     <g transform="translate(176.473437 177.560313) scale(0.1 -0.1)">
      <defs>
       <path id="DejaVuSans-42" d="M 1259 2228 
L 1259 519 
L 2272 519 
Q 2781 519 3026 730 
Q 3272 941 3272 1375 
Q 3272 1813 3026 2020 
Q 2781 2228 2272 2228 
L 1259 2228 
z
M 1259 4147 
L 1259 2741 
L 2194 2741 
Q 2656 2741 2882 2914 
Q 3109 3088 3109 3444 
Q 3109 3797 2882 3972 
Q 2656 4147 2194 4147 
L 1259 4147 
z
M 628 4666 
L 2241 4666 
Q 2963 4666 3353 4366 
Q 3744 4066 3744 3513 
Q 3744 3084 3544 2831 
Q 3344 2578 2956 2516 
Q 3422 2416 3680 2098 
Q 3938 1781 3938 1306 
Q 3938 681 3513 340 
Q 3088 0 2303 0 
L 628 0 
L 628 4666 
z
" transform="scale(0.015625)"/>
       <path id="DejaVuSans-45" d="M 628 4666 
L 3578 4666 
L 3578 4134 
L 1259 4134 
L 1259 2753 
L 3481 2753 
L 3481 2222 
L 1259 2222 
L 1259 531 
L 3634 531 
L 3634 0 
L 628 0 
L 628 4666 
z
" transform="scale(0.015625)"/>
       <path id="DejaVuSans-4d" d="M 628 4666 
L 1569 4666 
L 2759 1491 
L 3956 4666 
L 4897 4666 
L 4897 0 
L 4281 0 
L 4281 4097 
L 3078 897 
L 2444 897 
L 1241 4097 
L 1241 0 
L 628 0 
L 628 4666 
z
" transform="scale(0.015625)"/>
       <path id="DejaVuSans-4e" d="M 628 4666 
L 1478 4666 
L 3547 763 
L 3547 4666 
L 4159 4666 
L 4159 0 
L 3309 0 
L 1241 3903 
L 1241 0 
L 628 0 
L 628 4666 
z
" transform="scale(0.015625)"/>
       <path id="DejaVuSans-3d" d="M 678 2906 
L 4684 2906 
L 4684 2381 
L 678 2381 
L 678 2906 
z
M 678 1631 
L 4684 1631 
L 4684 1100 
L 678 1100 
L 678 1631 
z
" transform="scale(0.015625)"/>
       <path id="DejaVuSans-36" d="M 2113 2584 
Q 1688 2584 1439 2293 
Q 1191 2003 1191 1497 
Q 1191 994 1439 701 
Q 1688 409 2113 409 
Q 2538 409 2786 701 
Q 3034 994 3034 1497 
Q 3034 2003 2786 2293 
Q 2538 2584 2113 2584 
z
M 3366 4563 
L 3366 3988 
Q 3128 4100 2886 4159 
Q 2644 4219 2406 4219 
Q 1781 4219 1451 3797 
Q 1122 3375 1075 2522 
Q 1259 2794 1537 2939 
Q 1816 3084 2150 3084 
Q 2853 3084 3261 2657 
Q 3669 2231 3669 1497 
Q 3669 778 3244 343 
Q 2819 -91 2113 -91 
Q 1303 -91 875 529 
Q 447 1150 447 2328 
Q 447 3434 972 4092 
Q 1497 4750 2381 4750 
Q 2619 4750 2861 4703 
Q 3103 4656 3366 4563 
z
" transform="scale(0.015625)"/>
      </defs>
      <use xlink:href="#DejaVuSans-42"/>
      <use xlink:href="#DejaVuSans-45" transform="translate(68.603516 0)"/>
      <use xlink:href="#DejaVuSans-4d" transform="translate(131.787109 0)"/>
      <use xlink:href="#DejaVuSans-20" transform="translate(218.066406 0)"/>
      <use xlink:href="#DejaVuSans-28" transform="translate(249.853516 0)"/>
      <use xlink:href="#DejaVuSans-4e" transform="translate(288.867188 0)"/>
      <use xlink:href="#DejaVuSans-3d" transform="translate(363.671875 0)"/>
      <use xlink:href="#DejaVuSans-33" transform="translate(447.460938 0)"/>
      <use xlink:href="#DejaVuSans-36" transform="translate(511.083984 0)"/>
      <use xlink:href="#DejaVuSans-30" transform="translate(574.707031 0)"/>
      <use xlink:href="#DejaVuSans-29" transform="translate(638.330078 0)"/>
     </g>
    </g>
   </g>
  </g>
 </g>
 <defs>
  <clipPath id="pcd67b93fb2">
   <rect x="28.942188" y="22.32" width="334.8" height="166.32"/>
  </clipPath>
 </defs>
</svg>
