<?xml version="1.0" encoding="utf-8" standalone="no"?>
<!DOCTYPE svg PUBLIC "-//W3C//DTD SVG 1.1//EN"
  "http://www.w3.org/Graphics/SVG/1.1/DTD/svg11.dtd">
<svg xmlns:xlink="http://www.w3.org/1999/xlink" width="424.8pt" height="229.318125pt" viewBox="0 0 424.8 229.318125" xmlns="http://www.w3.org/2000/svg" version="1.1">
 <metadata>
  <rdf:RDF xmlns:dc="http://purl.org/dc/elements/1.1/" xmlns:cc="http://creativecommons.org/ns#" xmlns:rdf="http://www.w3.org/1999/02/22-rdf-syntax-ns#">
   <cc:Work>
    <dc:type rdf:resource="http://purl.org/dc/dcmitype/StillImage"/>
    <dc:date>2025-07-11T01:28:04.780089</dc:date>
    <dc:format>image/svg+xml</dc:format>
    <dc:creator>
     <cc:Agent>
      <dc:title>Matplotlib v3.10.0, https://matplotlib.org/</dc:title>
     </cc:Agent>
    </dc:creator>
   </cc:Work>
  </rdf:RDF>
 </metadata>
 <defs>
  <style type="text/css">*{stroke-linejoin: round; stroke-linecap: butt}</style>
 </defs>
 <g id="figure_1">
  <g id="patch_1">
   <path d="M 0 229.318125 
L 424.8 229.318125 
L 424.8 0 
L 0 0 
z
" style="fill: #ffffff"/>
  </g>
  <g id="axes_1">
   <g id="patch_2">
    <path d="M 7.2 222.118125 
L 207 222.118125 
L 207 22.318125 
L 7.2 22.318125 
z
" style="fill: #dcdcdc"/>
   </g>
   <g id="patch_3">
    <path d="M 157.05 122.218125 
L 156.854537 117.803539 
L 156.269677 113.423503 
L 155.299997 109.112296 
L 153.953088 104.903661 
L 152.239489 100.830535 
L 150.172613 96.924795 
L 147.768635 93.217011 
L 145.04637 89.736199 
L 142.027123 86.509602 
L 138.734524 83.562473 
L 135.194342 80.917877 
L 131.434284 78.596512 
L 127.483776 76.616544 
L 123.373739 74.993471 
L 119.136337 73.739995 
L 114.804734 72.865926 
L 110.412832 72.378104 
L 105.995002 72.280349 
L 101.58582 72.573424 
L 97.219794 73.255037 
L 92.931094 74.319851 
L 88.753285 75.759535 
L 84.719064 77.562821 
L 80.860004 79.715594 
L 77.206308 82.201008 
L 73.78657 84.999609 
L 70.627555 88.089497 
L 67.753987 91.446486 
L 65.188354 95.044306 
L 62.950737 98.854798 
L 61.058647 102.848139 
L 59.526894 106.993077 
L 58.367465 111.257171 
L 57.589434 115.60705 
L 57.19889 120.008669 
L 57.19889 124.427581 
L 57.589434 128.8292 
L 58.367465 133.179079 
L 59.526894 137.443173 
L 61.058647 141.588111 
L 62.950737 145.581452 
L 65.188354 149.391944 
L 67.753987 152.989764 
L 70.627555 156.346753 
L 73.78657 159.436641 
L 77.206308 162.235242 
L 80.860004 164.720656 
L 84.719064 166.873429 
L 88.753285 168.676715 
L 92.931094 170.116399 
L 97.219794 171.181213 
L 101.58582 171.862826 
L 105.995002 172.155901 
L 110.412832 172.058146 
L 114.804734 171.570324 
L 119.136337 170.696255 
L 123.373739 169.442779 
L 127.483776 167.819706 
L 131.434284 165.839738 
L 135.194342 163.518373 
L 138.734524 160.873777 
L 142.027123 157.926648 
L 145.04637 154.700051 
L 147.768635 151.219239 
L 150.172613 147.511455 
L 152.239489 143.605715 
L 153.953088 139.532589 
L 155.299997 135.323954 
L 156.269677 131.012747 
L 156.854537 126.632711 
L 157.05 122.218125 
z
" clip-path="url(#p9759e8973b)" style="fill: #ffffff; stroke: #ffffff; stroke-linejoin: miter"/>
   </g>
   <g id="line2d_1">
    <path d="M 157.05 122.218125 
L 156.854537 117.803539 
L 156.269677 113.423503 
L 155.299997 109.112296 
L 153.953088 104.903661 
L 152.239489 100.830535 
L 150.172613 96.924795 
L 147.768635 93.217011 
L 145.04637 89.736199 
L 142.027123 86.509602 
L 138.734524 83.562473 
L 135.194342 80.917877 
L 131.434284 78.596512 
L 127.483776 76.616544 
L 123.373739 74.993471 
L 119.136337 73.739995 
L 114.804734 72.865926 
L 110.412832 72.378104 
L 105.995002 72.280349 
L 101.58582 72.573424 
L 97.219794 73.255037 
L 92.931094 74.319851 
L 88.753285 75.759535 
L 84.719064 77.562821 
L 80.860004 79.715594 
L 77.206308 82.201008 
L 73.78657 84.999609 
L 70.627555 88.089497 
L 67.753987 91.446486 
L 65.188354 95.044306 
L 62.950737 98.854798 
L 61.058647 102.848139 
L 59.526894 106.993077 
L 58.367465 111.257171 
L 57.589434 115.60705 
L 57.19889 120.008669 
L 57.19889 124.427581 
L 57.589434 128.8292 
L 58.367465 133.179079 
L 59.526894 137.443173 
L 61.058647 141.588111 
L 62.950737 145.581452 
L 65.188354 149.391944 
L 67.753987 152.989764 
L 70.627555 156.346753 
L 73.78657 159.436641 
L 77.206308 162.235242 
L 80.860004 164.720656 
L 84.719064 166.873429 
L 88.753285 168.676715 
L 92.931094 170.116399 
L 97.219794 171.181213 
L 101.58582 171.862826 
L 105.995002 172.155901 
L 110.412832 172.058146 
L 114.804734 171.570324 
L 119.136337 170.696255 
L 123.373739 169.442779 
L 127.483776 167.819706 
L 131.434284 165.839738 
L 135.194342 163.518373 
L 138.734524 160.873777 
L 142.027123 157.926648 
L 145.04637 154.700051 
L 147.768635 151.219239 
L 150.172613 147.511455 
L 152.239489 143.605715 
L 153.953088 139.532589 
L 155.299997 135.323954 
L 156.269677 131.012747 
L 156.854537 126.632711 
L 157.05 122.218125 
" clip-path="url(#p9759e8973b)" style="fill: none; stroke: #000000; stroke-width: 1.5; stroke-linecap: square"/>
   </g>
   <g id="LineCollection_1">
    <path d="M 7.2 202.138125 
L 7.2 202.138125 
L 13.776458 203.188917 
L 20.341046 204.311544 
L 26.894701 205.496475 
L 33.439525 206.729397 
L 39.978924 207.990963 
L 46.517333 209.257641 
L 53.059855 210.50267 
L 59.61175 211.697109 
L 66.177648 212.811393 
L 72.76102 213.81649 
L 79.363526 214.686101 
L 85.984865 215.397157 
L 92.622796 215.930107 
L 99.273283 216.270494 
L 105.931002 216.409298 
L 112.589839 216.342726 
L 119.243545 216.072623 
L 125.886454 215.606227 
L 132.514002 214.955917 
L 139.123298 214.139665 
L 145.713331 213.179426 
L 152.285099 212.100445 
L 158.84146 210.930897 
L 165.386698 209.700285 
L 171.92596 208.438074 
L 178.464443 207.171836 
L 185.006933 205.926498 
L 191.557211 204.722931 
L 198.11781 203.577174 
L 204.690074 202.500439 
L 207 202.135314 
" clip-path="url(#p9759e8973b)" style="fill: none; stroke: #0000ff; stroke-width: 1.5"/>
    <path d="M 7.2 191.482125 
L 7.2 191.482125 
L 13.758458 192.639311 
L 20.297755 193.900306 
L 26.817937 195.256853 
L 33.32099 196.693507 
L 39.811245 198.187213 
L 46.295289 199.707837 
L 52.78128 201.219985 
L 59.277982 202.68496 
L 65.793612 204.062769 
L 72.334435 205.314555 
L 78.903877 206.404704 
L 85.502207 207.302176 
L 92.126391 207.981541 
L 98.770506 208.423335 
L 105.426417 208.61525 
L 112.084827 208.551826 
L 118.736058 208.234903 
L 125.37121 207.673561 
L 131.983153 206.883228 
L 138.5674 205.886558 
L 145.122451 204.712029 
L 151.650162 203.393143 
L 158.155563 201.967372 
L 164.645897 200.474016 
L 171.129757 198.952753 
L 177.615932 197.441422 
L 184.111918 195.972948 
L 190.623164 194.573934 
L 197.152792 193.263656 
L 203.701742 192.053797 
L 207 191.471769 
" clip-path="url(#p9759e8973b)" style="fill: none; stroke: #0000ff; stroke-width: 1.5"/>
    <path d="M 7.2 180.826125 
L 7.2 180.826125 
L 13.742493 182.069359 
L 20.255638 183.457968 
L 26.736994 184.988219 
L 33.187072 186.645739 
L 39.61053 188.404105 
L 46.01662 190.22513 
L 52.418411 192.061367 
L 58.830827 193.859965 
L 65.268014 195.566965 
L 71.741127 197.130698 
L 78.257124 198.503016 
L 84.817625 199.641847 
L 91.41855 200.514248 
L 98.051337 201.095135 
L 104.703802 201.367506 
L 111.361606 201.323469 
L 118.00997 200.964252 
L 124.635033 200.300187 
L 131.225469 199.350736 
L 137.77386 198.143363 
L 144.277656 196.713589 
L 150.739745 195.104545 
L 157.1685 193.36606 
L 163.576352 191.551334 
L 169.977961 189.714418 
L 176.387879 187.906843 
L 182.818196 186.173671 
L 189.276889 184.550001 
L 195.767357 183.058852 
L 202.289117 181.711228 
L 207 180.792957 
" clip-path="url(#p9759e8973b)" style="fill: none; stroke: #0000ff; stroke-width: 1.5"/>
    <path d="M 7.2 170.170125 
L 7.2 170.170125 
L 13.734194 171.454724 
L 20.226638 172.935197 
L 26.669268 174.619041 
L 33.057667 176.498567 
L 39.394409 178.546346 
L 45.691157 180.714785 
L 51.968179 182.940063 
L 58.250854 185.149117 
L 64.564513 187.267099 
L 70.929689 189.223225 
L 77.359111 190.954417 
L 83.856684 192.406919 
L 90.417744 193.536182 
L 97.029836 194.309283 
L 103.67505 194.704536 
L 110.332033 194.710799 
L 116.978054 194.327847 
L 123.591643 193.566803 
L 130.154635 192.448448 
L 136.654484 191.005622 
L 143.08616 189.282316 
L 149.453307 187.332323 
L 155.768395 185.218484 
L 162.051786 183.011444 
L 168.328767 180.786061 
L 174.624832 178.615587 
L 180.960485 176.56426 
L 187.347606 174.680153 
L 193.788927 172.991131 
L 200.280159 171.505289 
L 206.813305 170.215432 
L 207 170.181379 
" clip-path="url(#p9759e8973b)" style="fill: none; stroke: #0000ff; stroke-width: 1.5"/>
    <path d="M 7.2 159.514125 
L 7.2 159.514125 
L 13.741344 160.759993 
L 20.229915 162.254505 
L 26.64713 164.029139 
L 32.976163 166.096094 
L 39.209865 168.435921 
L 45.358715 170.992126 
L 51.453173 173.677119 
L 57.536667 176.387084 
L 63.654657 179.016829 
L 69.845233 181.469091 
L 76.132521 183.65931 
L 82.524891 185.517743 
L 89.016317 186.989729 
L 95.589746 188.03325 
L 102.219531 188.619208 
L 108.87403 188.731789 
L 115.519502 188.367702 
L 122.123327 187.536956 
L 128.656352 186.261741 
L 135.096811 184.578431 
L 141.433272 182.536126 
L 147.667512 180.197983 
L 153.816555 177.641702 
L 159.91153 174.957992 
L 165.995324 172.249087 
L 172.114413 169.621567 
L 178.306598 167.172873 
L 184.591869 164.975658 
L 190.970412 163.066303 
L 197.428425 161.445155 
L 203.947349 160.087957 
L 207 159.512595 
" clip-path="url(#p9759e8973b)" style="fill: none; stroke: #0000ff; stroke-width: 1.5"/>
    <path d="M 7.2 148.858125 
L 7.2 148.858125 
L 13.770147 149.940834 
L 20.28647 151.306389 
L 26.716947 153.026968 
L 33.01988 155.164657 
L 39.156911 157.739867 
L 45.119835 160.698806 
L 50.948162 163.91857 
L 56.719524 167.241185 
L 62.520459 170.510884 
L 68.422475 173.592327 
L 74.469354 176.375656 
L 80.678032 178.772492 
L 87.04311 180.712988 
L 93.541013 182.144653 
L 100.135453 183.030396 
L 106.781272 183.347871 
L 113.429516 183.088883 
L 120.031304 182.259527 
L 126.541217 180.881036 
L 132.921553 178.989319 
L 139.147053 176.635477 
L 145.210158 173.887335 
L 151.125506 170.831403 
L 156.934442 167.575495 
L 162.706181 164.253054 
L 168.52699 161.018963 
L 174.476935 158.032569 
L 180.599339 155.421535 
L 186.889312 153.245149 
L 193.310177 151.488835 
L 199.819926 150.092799 
L 206.385873 148.985778 
L 207 148.894268 
" clip-path="url(#p9759e8973b)" style="fill: none; stroke: #0000ff; stroke-width: 1.5"/>
    <path d="M 7.2 138.202125 
L 7.2 138.202125 
L 13.815901 138.959274 
L 20.397137 139.968279 
L 26.909994 141.341922 
L 33.288175 143.232817 
L 39.422492 145.794553 
L 45.210313 149.063839 
L 50.658438 152.882036 
L 55.912565 156.971349 
L 61.159488 161.070965 
L 66.545619 164.982549 
L 72.155637 168.561483 
L 78.022857 171.698007 
L 84.142054 174.307044 
L 90.479764 176.324379 
L 96.986144 177.701352 
L 103.598982 178.407457 
L 110.249639 178.427768 
L 116.867072 177.761518 
L 123.382164 176.423961 
L 129.732287 174.444244 
L 135.866473 171.869579 
L 141.751329 168.764319 
L 147.378824 165.210965 
L 152.779181 161.317646 
L 158.033946 157.227565 
L 163.287957 153.1373 
L 168.730132 149.307055 
L 174.507216 146.015204 
L 180.630339 143.426405 
L 186.999356 141.506605 
L 193.506899 140.109392 
L 200.085203 139.082842 
L 206.699499 138.312599 
L 207 138.282377 
" clip-path="url(#p9759e8973b)" style="fill: none; stroke: #0000ff; stroke-width: 1.5"/>
    <path d="M 7.2 127.546125 
L 7.2 127.546125 
L 13.854059 127.82132 
L 20.502479 128.203251 
L 27.137635 128.761191 
L 33.736427 129.635137 
L 40.212435 131.12613 
L 40.212435 131.12613 
L 44.697519 132.909286 
L 48.877131 135.66384 
L 51.95951 138.662588 
L 54.978392 142.351019 
L 58.99594 147.65772 
L 63.180512 152.83077 
L 67.744069 157.667921 
L 72.755269 162.037308 
L 78.209119 165.837638 
L 84.062336 168.988184 
L 90.246256 171.424924 
L 96.678892 173.097594 
L 103.266939 173.975541 
L 109.913385 174.041044 
L 116.518586 173.293985 
L 122.983653 171.748006 
L 129.216466 169.435667 
L 135.130996 166.399878 
L 140.656883 162.702293 
L 145.745829 158.421721 
L 150.388119 153.657262 
L 154.637647 148.535404 
L 158.679339 143.244598 
L 162.953671 138.150084 
L 162.953671 138.150084 
L 166.495883 135.030402 
L 170.684227 132.626146 
L 174.872642 131.121072 
L 179.875655 129.972757 
L 186.356255 129.043693 
L 192.987345 128.442045 
L 199.634037 128.033082 
L 206.287236 127.739671 
L 207 127.712955 
" clip-path="url(#p9759e8973b)" style="fill: none; stroke: #0000ff; stroke-width: 1.5"/>
    <path d="M 7.2 116.890125 
L 7.2 116.890125 
L 13.854059 116.61493 
L 20.502479 116.232999 
L 27.137635 115.675059 
L 33.736427 114.801113 
L 40.212435 113.31012 
L 40.212435 113.31012 
L 44.697519 111.526964 
L 48.877131 108.77241 
L 51.95951 105.773662 
L 54.978392 102.085231 
L 58.99594 96.77853 
L 63.180512 91.60548 
L 67.744069 86.768329 
L 72.755269 82.398942 
L 78.209119 78.598612 
L 84.062336 75.448066 
L 90.246256 73.011326 
L 96.678892 71.338656 
L 103.266939 70.460709 
L 109.913385 70.395206 
L 116.518586 71.142265 
L 122.983653 72.688244 
L 129.216466 75.000583 
L 135.130996 78.036372 
L 140.656883 81.733957 
L 145.745829 86.014529 
L 150.388119 90.778988 
L 154.637647 95.900846 
L 158.679339 101.191652 
L 162.953671 106.286166 
L 162.953671 106.286166 
L 166.495883 109.405848 
L 170.684227 111.810104 
L 174.872642 113.315178 
L 179.875655 114.463493 
L 186.356255 115.392557 
L 192.987345 115.994205 
L 199.634037 116.403168 
L 206.287236 116.696579 
L 207 116.723295 
" clip-path="url(#p9759e8973b)" style="fill: none; stroke: #0000ff; stroke-width: 1.5"/>
    <path d="M 7.2 106.234125 
L 7.2 106.234125 
L 13.815901 105.476976 
L 20.397137 104.467971 
L 26.909994 103.094328 
L 33.288175 101.203433 
L 39.422492 98.641697 
L 45.210313 95.372411 
L 50.658438 91.554214 
L 55.912565 87.464901 
L 61.159488 83.365285 
L 66.545619 79.453701 
L 72.155637 75.874767 
L 78.022857 72.738243 
L 84.142054 70.129206 
L 90.479764 68.111871 
L 96.986144 66.734898 
L 103.598982 66.028793 
L 110.249639 66.008482 
L 116.867072 66.674732 
L 123.382164 68.012289 
L 129.732287 69.992006 
L 135.866473 72.566671 
L 141.751329 75.671931 
L 147.378824 79.225285 
L 152.779181 83.118604 
L 158.033946 87.208685 
L 163.287957 91.29895 
L 168.730132 95.129195 
L 174.507216 98.421046 
L 180.630339 101.009845 
L 186.999356 102.929645 
L 193.506899 104.326858 
L 200.085203 105.353408 
L 206.699499 106.123651 
L 207 106.153873 
" clip-path="url(#p9759e8973b)" style="fill: none; stroke: #0000ff; stroke-width: 1.5"/>
    <path d="M 7.2 95.578125 
L 7.2 95.578125 
L 13.770147 94.495416 
L 20.28647 93.129861 
L 26.716947 91.409282 
L 33.01988 89.271593 
L 39.156911 86.696383 
L 45.119835 83.737444 
L 50.948162 80.51768 
L 56.719524 77.195065 
L 62.520459 73.925366 
L 68.422475 70.843923 
L 74.469354 68.060594 
L 80.678032 65.663758 
L 87.04311 63.723262 
L 93.541013 62.291597 
L 100.135453 61.405854 
L 106.781272 61.088379 
L 113.429516 61.347367 
L 120.031304 62.176723 
L 126.541217 63.555214 
L 132.921553 65.446931 
L 139.147053 67.800773 
L 145.210158 70.548915 
L 151.125506 73.604847 
L 156.934442 76.860755 
L 162.706181 80.183196 
L 168.52699 83.417287 
L 174.476935 86.403681 
L 180.599339 89.014715 
L 186.889312 91.191101 
L 193.310177 92.947415 
L 199.819926 94.343451 
L 206.385873 95.450472 
L 207 95.541982 
" clip-path="url(#p9759e8973b)" style="fill: none; stroke: #0000ff; stroke-width: 1.5"/>
    <path d="M 7.2 84.922125 
L 7.2 84.922125 
L 13.741344 83.676257 
L 20.229915 82.181745 
L 26.64713 80.407111 
L 32.976163 78.340156 
L 39.209865 76.000329 
L 45.358715 73.444124 
L 51.453173 70.759131 
L 57.536667 68.049166 
L 63.654657 65.419421 
L 69.845233 62.967159 
L 76.132521 60.77694 
L 82.524891 58.918507 
L 89.016317 57.446521 
L 95.589746 56.403 
L 102.219531 55.817042 
L 108.87403 55.704461 
L 115.519502 56.068548 
L 122.123327 56.899294 
L 128.656352 58.174509 
L 135.096811 59.857819 
L 141.433272 61.900124 
L 147.667512 64.238267 
L 153.816555 66.794548 
L 159.91153 69.478258 
L 165.995324 72.187163 
L 172.114413 74.814683 
L 178.306598 77.263377 
L 184.591869 79.460592 
L 190.970412 81.369947 
L 197.428425 82.991095 
L 203.947349 84.348293 
L 207 84.923655 
" clip-path="url(#p9759e8973b)" style="fill: none; stroke: #0000ff; stroke-width: 1.5"/>
    <path d="M 7.2 74.266125 
L 7.2 74.266125 
L 13.734194 72.981526 
L 20.226638 71.501053 
L 26.669268 69.817209 
L 33.057667 67.937683 
L 39.394409 65.889904 
L 45.691157 63.721465 
L 51.968179 61.496187 
L 58.250854 59.287133 
L 64.564513 57.169151 
L 70.929689 55.213025 
L 77.359111 53.481833 
L 83.856684 52.029331 
L 90.417744 50.900068 
L 97.029836 50.126967 
L 103.67505 49.731714 
L 110.332033 49.725451 
L 116.978054 50.108403 
L 123.591643 50.869447 
L 130.154635 51.987802 
L 136.654484 53.430628 
L 143.08616 55.153934 
L 149.453307 57.103927 
L 155.768395 59.217766 
L 162.051786 61.424806 
L 168.328767 63.650189 
L 174.624832 65.820663 
L 180.960485 67.87199 
L 187.347606 69.756097 
L 193.788927 71.445119 
L 200.280159 72.930961 
L 206.813305 74.220818 
L 207 74.254871 
" clip-path="url(#p9759e8973b)" style="fill: none; stroke: #0000ff; stroke-width: 1.5"/>
    <path d="M 7.2 63.610125 
L 7.2 63.610125 
L 13.742493 62.366891 
L 20.255638 60.978282 
L 26.736994 59.448031 
L 33.187072 57.790511 
L 39.61053 56.032145 
L 46.01662 54.21112 
L 52.418411 52.374883 
L 58.830827 50.576285 
L 65.268014 48.869285 
L 71.741127 47.305552 
L 78.257124 45.933234 
L 84.817625 44.794403 
L 91.41855 43.922002 
L 98.051337 43.341115 
L 104.703802 43.068744 
L 111.361606 43.112781 
L 118.00997 43.471998 
L 124.635033 44.136063 
L 131.225469 45.085514 
L 137.77386 46.292887 
L 144.277656 47.722661 
L 150.739745 49.331705 
L 157.1685 51.07019 
L 163.576352 52.884916 
L 169.977961 54.721832 
L 176.387879 56.529407 
L 182.818196 58.262579 
L 189.276889 59.886249 
L 195.767357 61.377398 
L 202.289117 62.725022 
L 207 63.643293 
" clip-path="url(#p9759e8973b)" style="fill: none; stroke: #0000ff; stroke-width: 1.5"/>
    <path d="M 7.2 52.954125 
L 7.2 52.954125 
L 13.758458 51.796939 
L 20.297755 50.535944 
L 26.817937 49.179397 
L 33.32099 47.742743 
L 39.811245 46.249037 
L 46.295289 44.728413 
L 52.78128 43.216265 
L 59.277982 41.75129 
L 65.793612 40.373481 
L 72.334435 39.121695 
L 78.903877 38.031546 
L 85.502207 37.134074 
L 92.126391 36.454709 
L 98.770506 36.012915 
L 105.426417 35.821 
L 112.084827 35.884424 
L 118.736058 36.201347 
L 125.37121 36.762689 
L 131.983153 37.553022 
L 138.5674 38.549692 
L 145.122451 39.724221 
L 151.650162 41.043107 
L 158.155563 42.468878 
L 164.645897 43.962234 
L 171.129757 45.483497 
L 177.615932 46.994828 
L 184.111918 48.463302 
L 190.623164 49.862316 
L 197.152792 51.172594 
L 203.701742 52.382453 
L 207 52.964481 
" clip-path="url(#p9759e8973b)" style="fill: none; stroke: #0000ff; stroke-width: 1.5"/>
    <path d="M 7.2 42.298125 
L 7.2 42.298125 
L 13.776458 41.247333 
L 20.341046 40.124706 
L 26.894701 38.939775 
L 33.439525 37.706853 
L 39.978924 36.445287 
L 46.517333 35.178609 
L 53.059855 33.93358 
L 59.61175 32.739141 
L 66.177648 31.624857 
L 72.76102 30.61976 
L 79.363526 29.750149 
L 85.984865 29.039093 
L 92.622796 28.506143 
L 99.273283 28.165756 
L 105.931002 28.026952 
L 112.589839 28.093524 
L 119.243545 28.363627 
L 125.886454 28.830023 
L 132.514002 29.480333 
L 139.123298 30.296585 
L 145.713331 31.256824 
L 152.285099 32.335805 
L 158.84146 33.505353 
L 165.386698 34.735965 
L 171.92596 35.998176 
L 178.464443 37.264414 
L 185.006933 38.509752 
L 191.557211 39.713319 
L 198.11781 40.859076 
L 204.690074 41.935811 
L 207 42.300936 
" clip-path="url(#p9759e8973b)" style="fill: none; stroke: #0000ff; stroke-width: 1.5"/>
    <path d="M 106.080613 122.413972 
L 106.011328 122.463292 
L 106.0374 122.411155 
L 105.982208 122.412344 
L 105.408305 122.299455 
L 105.408305 122.299455 
L 104.76519 122.251853 
L 101.438383 122.500163 
L 101.438383 122.500163 
L 97.350672 122.807518 
L 97.350672 122.807518 
L 91.597781 123.454415 
L 86.655677 124.434361 
L 82.58346 125.679838 
L 79.219041 127.204975 
L 76.476185 129.035302 
L 74.243926 131.301128 
L 72.554509 134.210782 
L 71.647293 137.951232 
L 71.863027 142.398584 
L 73.346641 147.188255 
L 76.002103 151.888467 
L 79.645393 156.212798 
L 84.079305 159.950934 
L 89.152159 162.995915 
L 94.678664 165.241397 
L 100.484773 166.639307 
L 107.1 167.173125 
L 113.715227 166.639307 
L 119.521336 165.241397 
L 125.047841 162.995915 
L 130.120695 159.950934 
L 134.554607 156.212798 
L 138.197897 151.888467 
L 140.853359 147.188255 
L 142.336973 142.398584 
L 142.552707 137.951232 
L 141.645491 134.210782 
L 139.956074 131.301128 
L 137.723815 129.035302 
L 134.980959 127.204975 
L 131.61654 125.679838 
L 127.544323 124.434361 
L 122.602219 123.454415 
L 116.849328 122.807518 
L 116.849328 122.807518 
L 108.791695 122.299455 
L 108.791695 122.299455 
L 108.51846 122.435347 
L 108.201889 122.437051 
L 108.119942 122.461394 
L 108.1626 122.411155 
L 108.119387 122.413972 
" clip-path="url(#p9759e8973b)" style="fill: none; stroke: #0000ff; stroke-width: 1.5"/>
    <path d="M 106.080613 122.436573 
L 106.061429 122.419233 
L 105.998457 122.452329 
L 105.983082 122.438031 
L 105.852237 122.45314 
L 104.941922 122.287823 
L 99.770655 123.453707 
L 96.478929 124.679063 
L 93.566663 126.344122 
L 91.120142 128.432996 
L 89.16921 130.98312 
L 87.870866 133.893331 
L 87.321823 137.225674 
L 87.691784 140.779734 
L 89.052416 144.336558 
L 91.399525 147.659763 
L 94.587062 150.471964 
L 98.411736 152.588306 
L 102.653149 153.891772 
L 107.1 154.328839 
L 107.1 154.328839 
L 111.546851 153.891772 
L 115.788264 152.588306 
L 119.612938 150.471964 
L 122.800475 147.659763 
L 125.147584 144.336558 
L 126.508216 140.779734 
L 126.878177 137.225674 
L 126.329134 133.893331 
L 125.03079 130.98312 
L 123.079858 128.432996 
L 120.633337 126.344122 
L 117.721071 124.679063 
L 114.429345 123.453707 
L 108.941736 122.321719 
L 108.941736 122.321719 
L 108.606426 122.434963 
L 108.119396 122.419611 
L 108.119387 122.436573 
" clip-path="url(#p9759e8973b)" style="fill: none; stroke: #0000ff; stroke-width: 1.5"/>
    <path d="M 106.080613 122.454992 
L 106.037389 122.386184 
L 106.012974 122.503807 
L 105.984138 122.432703 
L 105.942938 122.389319 
L 105.895034 122.506772 
L 105.809486 122.435826 
L 105.677668 122.388043 
L 105.5101 122.513226 
L 105.5101 122.513226 
L 105.307232 122.36289 
L 104.760446 122.398652 
L 103.609668 122.967264 
L 103.609668 122.967264 
L 101.635885 123.885621 
L 99.54601 125.412766 
L 97.969402 127.458747 
L 97.018139 129.893309 
L 96.804392 132.504483 
L 97.423414 135.236225 
L 98.915111 137.722185 
L 101.163157 139.73372 
L 103.966575 141.034539 
L 107.1 141.484554 
L 107.1 141.484554 
L 110.233425 141.034539 
L 113.036843 139.73372 
L 115.284889 137.722185 
L 116.776586 135.236225 
L 117.395608 132.504483 
L 117.181861 129.893309 
L 116.230598 127.458747 
L 114.65399 125.412766 
L 112.564115 123.885621 
L 109.148502 122.334865 
L 108.892768 122.36289 
L 108.6899 122.513226 
L 108.6899 122.513226 
L 108.453166 122.385119 
L 108.304966 122.506772 
L 108.279093 122.440474 
L 108.162611 122.386184 
L 108.199244 122.500785 
L 108.155429 122.430638 
L 108.144852 122.501459 
L 108.135749 122.387191 
L 108.119387 122.454992 
" clip-path="url(#p9759e8973b)" style="fill: none; stroke: #0000ff; stroke-width: 1.5"/>
    <path d="M 106.080613 122.416073 
L 106.01098 122.460065 
L 106.037274 122.413433 
L 105.981909 122.414553 
L 105.112884 122.434012 
L 104.724247 123.077748 
L 104.724247 123.077748 
L 103.92907 125.225001 
L 103.92907 125.225001 
L 104.186312 126.799726 
L 105.277022 128.095159 
L 107.1 128.640268 
L 107.1 128.640268 
L 108.922978 128.095159 
L 110.013688 126.799726 
L 110.27093 125.225001 
L 109.087116 122.434012 
L 108.753023 122.353757 
L 108.520263 122.435582 
L 108.202225 122.436746 
L 108.119944 122.458634 
L 108.162726 122.413433 
L 108.119387 122.416073 
" clip-path="url(#p9759e8973b)" style="fill: none; stroke: #0000ff; stroke-width: 1.5"/>
    <path d="M 106.080613 122.020177 
L 106.01098 121.976185 
L 106.037274 122.022817 
L 105.981909 122.021697 
L 105.112884 122.002238 
L 104.724247 121.358502 
L 104.724247 121.358502 
L 103.92907 119.211249 
L 103.92907 119.211249 
L 104.186312 117.636524 
L 105.277022 116.341091 
L 107.1 115.795982 
L 107.1 115.795982 
L 108.922978 116.341091 
L 110.013688 117.636524 
L 110.27093 119.211249 
L 110.27093 119.211249 
L 109.087116 122.002238 
L 108.753023 122.082493 
L 108.520263 122.000668 
L 108.202225 121.999504 
L 108.119944 121.977616 
L 108.162726 122.022817 
L 108.119387 122.020177 
" clip-path="url(#p9759e8973b)" style="fill: none; stroke: #0000ff; stroke-width: 1.5"/>
    <path d="M 106.080613 121.981258 
L 106.037389 122.050066 
L 106.012974 121.932443 
L 105.984138 122.003547 
L 105.942938 122.046931 
L 105.895034 121.929478 
L 105.809486 122.000424 
L 105.677668 122.048207 
L 105.5101 121.923024 
L 105.5101 121.923024 
L 105.307232 122.07336 
L 104.760446 122.037598 
L 103.609668 121.468986 
L 103.609668 121.468986 
L 101.635885 120.550629 
L 99.54601 119.023484 
L 97.969402 116.977503 
L 97.018139 114.542941 
L 96.804392 111.931767 
L 97.423414 109.200025 
L 98.915111 106.714065 
L 101.163157 104.70253 
L 103.966575 103.401711 
L 107.1 102.951696 
L 107.1 102.951696 
L 110.233425 103.401711 
L 113.036843 104.70253 
L 115.284889 106.714065 
L 116.776586 109.200025 
L 117.395608 111.931767 
L 117.181861 114.542941 
L 116.230598 116.977503 
L 114.65399 119.023484 
L 112.564115 120.550629 
L 109.148502 122.101385 
L 108.892768 122.07336 
L 108.6899 121.923024 
L 108.6899 121.923024 
L 108.453166 122.051131 
L 108.304966 121.929478 
L 108.279093 121.995776 
L 108.162611 122.050066 
L 108.199244 121.935465 
L 108.155429 122.005612 
L 108.144852 121.934791 
L 108.135749 122.049059 
L 108.119387 121.981258 
" clip-path="url(#p9759e8973b)" style="fill: none; stroke: #0000ff; stroke-width: 1.5"/>
    <path d="M 106.080613 121.999677 
L 106.061429 122.017017 
L 105.998457 121.983921 
L 105.983082 121.998219 
L 105.852237 121.98311 
L 104.941922 122.148427 
L 99.770655 120.982543 
L 96.478929 119.757187 
L 93.566663 118.092128 
L 91.120142 116.003254 
L 89.16921 113.45313 
L 87.870866 110.542919 
L 87.321823 107.210576 
L 87.691784 103.656516 
L 89.052416 100.099692 
L 91.399525 96.776487 
L 94.587062 93.964286 
L 98.411736 91.847944 
L 102.653149 90.544478 
L 107.1 90.107411 
L 107.1 90.107411 
L 111.546851 90.544478 
L 115.788264 91.847944 
L 119.612938 93.964286 
L 122.800475 96.776487 
L 125.147584 100.099692 
L 126.508216 103.656516 
L 126.878177 107.210576 
L 126.329134 110.542919 
L 125.03079 113.45313 
L 123.079858 116.003254 
L 120.633337 118.092128 
L 117.721071 119.757187 
L 114.429345 120.982543 
L 108.941736 122.114531 
L 108.941736 122.114531 
L 108.606426 122.001287 
L 108.119396 122.016639 
L 108.119387 121.999677 
" clip-path="url(#p9759e8973b)" style="fill: none; stroke: #0000ff; stroke-width: 1.5"/>
    <path d="M 106.080613 122.022278 
L 106.011328 121.972958 
L 106.0374 122.025095 
L 105.982208 122.023906 
L 105.408305 122.136795 
L 105.408305 122.136795 
L 104.76519 122.184397 
L 101.438383 121.936087 
L 101.438383 121.936087 
L 97.350672 121.628732 
L 97.350672 121.628732 
L 91.597781 120.981835 
L 86.655677 120.001889 
L 82.58346 118.756412 
L 79.219041 117.231275 
L 76.476185 115.400948 
L 74.243926 113.135122 
L 72.554509 110.225468 
L 71.647293 106.485018 
L 71.863027 102.037666 
L 73.346641 97.247995 
L 76.002103 92.547783 
L 79.645393 88.223452 
L 84.079305 84.485316 
L 89.152159 81.440335 
L 94.678664 79.194853 
L 100.484773 77.796943 
L 107.1 77.263125 
L 113.715227 77.796943 
L 119.521336 79.194853 
L 125.047841 81.440335 
L 130.120695 84.485316 
L 134.554607 88.223452 
L 138.197897 92.547783 
L 140.853359 97.247995 
L 142.336973 102.037666 
L 142.552707 106.485018 
L 141.645491 110.225468 
L 139.956074 113.135122 
L 137.723815 115.400948 
L 134.980959 117.231275 
L 131.61654 118.756412 
L 127.544323 120.001889 
L 122.602219 120.981835 
L 116.849328 121.628732 
L 116.849328 121.628732 
L 108.791695 122.136795 
L 108.791695 122.136795 
L 108.51846 122.000903 
L 108.201889 121.999199 
L 108.119942 121.974856 
L 108.1626 122.025095 
L 108.119387 122.022278 
" clip-path="url(#p9759e8973b)" style="fill: none; stroke: #0000ff; stroke-width: 1.5"/>
   </g>
   <g id="patch_4">
    <path d="M 107.930604 216.389307 
Q 108.595512 216.382659 107.583453 216.392777 
" clip-path="url(#p9759e8973b)" style="fill: none; stroke: #0000ff; stroke-width: 1.5; stroke-linecap: round"/>
    <path d="M 103.563659 214.432866 
L 107.583453 216.392777 
L 103.603647 218.432666 
z
" clip-path="url(#p9759e8973b)" style="fill: #0000ff; stroke: #0000ff; stroke-width: 1.5; stroke-linecap: round"/>
   </g>
   <g id="patch_5">
    <path d="M 107.425891 208.596204 
Q 108.090757 208.589871 107.078647 208.599512 
" clip-path="url(#p9759e8973b)" style="fill: none; stroke: #0000ff; stroke-width: 1.5; stroke-linecap: round"/>
    <path d="M 103.059779 206.637702 
L 107.078647 208.599512 
L 103.097879 210.637521 
z
" clip-path="url(#p9759e8973b)" style="fill: #0000ff; stroke: #0000ff; stroke-width: 1.5; stroke-linecap: round"/>
   </g>
   <g id="patch_6">
    <path d="M 106.703094 201.354282 
Q 107.367899 201.349885 106.35569 201.35658 
" clip-path="url(#p9759e8973b)" style="fill: none; stroke: #0000ff; stroke-width: 1.5; stroke-linecap: round"/>
    <path d="M 102.342548 199.383081 
L 106.35569 201.35658 
L 102.369006 203.382993 
z
" clip-path="url(#p9759e8973b)" style="fill: #0000ff; stroke: #0000ff; stroke-width: 1.5; stroke-linecap: round"/>
   </g>
   <g id="patch_7">
    <path d="M 105.674095 194.706417 
Q 106.338818 194.707042 105.326491 194.70609 
" clip-path="url(#p9759e8973b)" style="fill: none; stroke: #0000ff; stroke-width: 1.5; stroke-linecap: round"/>
    <path d="M 101.328374 192.702328 
L 105.326491 194.70609 
L 101.324611 196.702326 
z
" clip-path="url(#p9759e8973b)" style="fill: #0000ff; stroke: #0000ff; stroke-width: 1.5; stroke-linecap: round"/>
   </g>
   <g id="patch_8">
    <path d="M 104.21783 188.653015 
Q 104.882305 188.664257 103.869969 188.64713 
" clip-path="url(#p9759e8973b)" style="fill: none; stroke: #0000ff; stroke-width: 1.5; stroke-linecap: round"/>
    <path d="M 99.904373 186.579754 
L 103.869969 188.64713 
L 99.83671 190.579181 
z
" clip-path="url(#p9759e8973b)" style="fill: #0000ff; stroke: #0000ff; stroke-width: 1.5; stroke-linecap: round"/>
   </g>
   <g id="patch_9">
    <path d="M 108.777693 183.270099 
Q 109.441544 183.244238 108.429614 183.283659 
" clip-path="url(#p9759e8973b)" style="fill: none; stroke: #0000ff; stroke-width: 1.5; stroke-linecap: round"/>
    <path d="M 104.354793 181.44088 
L 108.429614 183.283659 
L 104.510499 185.437848 
z
" clip-path="url(#p9759e8973b)" style="fill: #0000ff; stroke: #0000ff; stroke-width: 1.5; stroke-linecap: round"/>
   </g>
   <g id="patch_10">
    <path d="M 105.596127 178.413556 
Q 106.260219 178.415584 105.247267 178.412491 
" clip-path="url(#p9759e8973b)" style="fill: none; stroke: #0000ff; stroke-width: 1.5; stroke-linecap: round"/>
    <path d="M 101.253394 176.400284 
L 105.247267 178.412491 
L 101.241178 180.400265 
z
" clip-path="url(#p9759e8973b)" style="fill: #0000ff; stroke: #0000ff; stroke-width: 1.5; stroke-linecap: round"/>
   </g>
   <g id="patch_11">
    <path d="M 105.269311 173.995275 
Q 105.929737 174.001784 104.913193 173.991765 
" clip-path="url(#p9759e8973b)" style="fill: none; stroke: #0000ff; stroke-width: 1.5; stroke-linecap: round"/>
    <path d="M 100.933097 171.952443 
L 104.913193 173.991765 
L 100.893677 175.952249 
z
" clip-path="url(#p9759e8973b)" style="fill: #0000ff; stroke: #0000ff; stroke-width: 1.5; stroke-linecap: round"/>
   </g>
   <g id="patch_12">
    <path d="M 105.269311 70.440975 
Q 105.929737 70.434466 104.913193 70.444485 
" clip-path="url(#p9759e8973b)" style="fill: none; stroke: #0000ff; stroke-width: 1.5; stroke-linecap: round"/>
    <path d="M 100.893677 68.484001 
L 104.913193 70.444485 
L 100.933097 72.483807 
z
" clip-path="url(#p9759e8973b)" style="fill: #0000ff; stroke: #0000ff; stroke-width: 1.5; stroke-linecap: round"/>
   </g>
   <g id="patch_13">
    <path d="M 105.596127 66.022694 
Q 106.260219 66.020666 105.247267 66.023759 
" clip-path="url(#p9759e8973b)" style="fill: none; stroke: #0000ff; stroke-width: 1.5; stroke-linecap: round"/>
    <path d="M 101.241178 64.035985 
L 105.247267 66.023759 
L 101.253394 68.035966 
z
" clip-path="url(#p9759e8973b)" style="fill: #0000ff; stroke: #0000ff; stroke-width: 1.5; stroke-linecap: round"/>
   </g>
   <g id="patch_14">
    <path d="M 108.777693 61.166151 
Q 109.441544 61.192012 108.429614 61.152591 
" clip-path="url(#p9759e8973b)" style="fill: none; stroke: #0000ff; stroke-width: 1.5; stroke-linecap: round"/>
    <path d="M 104.510499 58.998402 
L 108.429614 61.152591 
L 104.354793 62.99537 
z
" clip-path="url(#p9759e8973b)" style="fill: #0000ff; stroke: #0000ff; stroke-width: 1.5; stroke-linecap: round"/>
   </g>
   <g id="patch_15">
    <path d="M 104.21783 55.783235 
Q 104.882305 55.771993 103.869969 55.78912 
" clip-path="url(#p9759e8973b)" style="fill: none; stroke: #0000ff; stroke-width: 1.5; stroke-linecap: round"/>
    <path d="M 99.83671 53.857069 
L 103.869969 55.78912 
L 99.904373 57.856496 
z
" clip-path="url(#p9759e8973b)" style="fill: #0000ff; stroke: #0000ff; stroke-width: 1.5; stroke-linecap: round"/>
   </g>
   <g id="patch_16">
    <path d="M 105.674095 49.729833 
Q 106.338818 49.729208 105.326491 49.73016 
" clip-path="url(#p9759e8973b)" style="fill: none; stroke: #0000ff; stroke-width: 1.5; stroke-linecap: round"/>
    <path d="M 101.324611 47.733924 
L 105.326491 49.73016 
L 101.328374 51.733922 
z
" clip-path="url(#p9759e8973b)" style="fill: #0000ff; stroke: #0000ff; stroke-width: 1.5; stroke-linecap: round"/>
   </g>
   <g id="patch_17">
    <path d="M 106.703094 43.081968 
Q 107.367899 43.086365 106.35569 43.07967 
" clip-path="url(#p9759e8973b)" style="fill: none; stroke: #0000ff; stroke-width: 1.5; stroke-linecap: round"/>
    <path d="M 102.369006 41.053257 
L 106.35569 43.07967 
L 102.342548 45.053169 
z
" clip-path="url(#p9759e8973b)" style="fill: #0000ff; stroke: #0000ff; stroke-width: 1.5; stroke-linecap: round"/>
   </g>
   <g id="patch_18">
    <path d="M 107.425891 35.840046 
Q 108.090757 35.846379 107.078647 35.836738 
" clip-path="url(#p9759e8973b)" style="fill: none; stroke: #0000ff; stroke-width: 1.5; stroke-linecap: round"/>
    <path d="M 103.097879 33.798729 
L 107.078647 35.836738 
L 103.059779 37.798548 
z
" clip-path="url(#p9759e8973b)" style="fill: #0000ff; stroke: #0000ff; stroke-width: 1.5; stroke-linecap: round"/>
   </g>
   <g id="patch_19">
    <path d="M 107.930604 28.046943 
Q 108.595512 28.053591 107.583453 28.043473 
" clip-path="url(#p9759e8973b)" style="fill: none; stroke: #0000ff; stroke-width: 1.5; stroke-linecap: round"/>
    <path d="M 103.603647 26.003584 
L 107.583453 28.043473 
L 103.563659 30.003384 
z
" clip-path="url(#p9759e8973b)" style="fill: #0000ff; stroke: #0000ff; stroke-width: 1.5; stroke-linecap: round"/>
   </g>
   <g id="patch_20">
    <path d="M 109.092966 167.012302 
Q 109.75029 166.959259 108.735996 167.041108 
" clip-path="url(#p9759e8973b)" style="fill: none; stroke: #0000ff; stroke-width: 1.5; stroke-linecap: round"/>
    <path d="M 104.588089 165.369323 
L 108.735996 167.041108 
L 104.909824 169.356363 
z
" clip-path="url(#p9759e8973b)" style="fill: #0000ff; stroke: #0000ff; stroke-width: 1.5; stroke-linecap: round"/>
   </g>
   <g id="patch_21">
    <path d="M 109.093266 154.132927 
Q 109.208346 154.121617 107.654417 154.274347 
" clip-path="url(#p9759e8973b)" style="fill: none; stroke: #0000ff; stroke-width: 1.5; stroke-linecap: round"/>
    <path d="M 103.477968 152.6752 
L 107.654417 154.274347 
L 103.86923 156.656019 
z
" clip-path="url(#p9759e8973b)" style="fill: #0000ff; stroke: #0000ff; stroke-width: 1.5; stroke-linecap: round"/>
   </g>
   <g id="patch_22">
    <path d="M 103.966575 141.034539 
Q 104.749931 141.147043 103.873269 141.021139 
" clip-path="url(#p9759e8973b)" style="fill: none; stroke: #0000ff; stroke-width: 1.5; stroke-linecap: round"/>
    <path d="M 100.198211 138.472815 
L 103.873269 141.021139 
L 99.629576 142.432191 
z
" clip-path="url(#p9759e8973b)" style="fill: #0000ff; stroke: #0000ff; stroke-width: 1.5; stroke-linecap: round"/>
   </g>
   <g id="patch_23">
    <path d="M 105.277022 128.095159 
Q 105.732766 128.231436 104.581755 127.88726 
" clip-path="url(#p9759e8973b)" style="fill: none; stroke: #0000ff; stroke-width: 1.5; stroke-linecap: round"/>
    <path d="M 101.322393 124.825143 
L 104.581755 127.88726 
L 100.176444 128.657479 
z
" clip-path="url(#p9759e8973b)" style="fill: #0000ff; stroke: #0000ff; stroke-width: 1.5; stroke-linecap: round"/>
   </g>
   <g id="patch_24">
    <path d="M 105.277022 116.341091 
Q 105.732766 116.204814 104.581755 116.54899 
" clip-path="url(#p9759e8973b)" style="fill: none; stroke: #0000ff; stroke-width: 1.5; stroke-linecap: round"/>
    <path d="M 100.176444 115.778771 
L 104.581755 116.54899 
L 101.322393 119.611107 
z
" clip-path="url(#p9759e8973b)" style="fill: #0000ff; stroke: #0000ff; stroke-width: 1.5; stroke-linecap: round"/>
   </g>
   <g id="patch_25">
    <path d="M 103.966575 103.401711 
Q 104.749931 103.289207 103.873269 103.415111 
" clip-path="url(#p9759e8973b)" style="fill: none; stroke: #0000ff; stroke-width: 1.5; stroke-linecap: round"/>
    <path d="M 99.629576 102.004059 
L 103.873269 103.415111 
L 100.198211 105.963435 
z
" clip-path="url(#p9759e8973b)" style="fill: #0000ff; stroke: #0000ff; stroke-width: 1.5; stroke-linecap: round"/>
   </g>
   <g id="patch_26">
    <path d="M 109.093266 90.303323 
Q 109.208346 90.314633 107.654417 90.161903 
" clip-path="url(#p9759e8973b)" style="fill: none; stroke: #0000ff; stroke-width: 1.5; stroke-linecap: round"/>
    <path d="M 103.86923 87.780231 
L 107.654417 90.161903 
L 103.477968 91.76105 
z
" clip-path="url(#p9759e8973b)" style="fill: #0000ff; stroke: #0000ff; stroke-width: 1.5; stroke-linecap: round"/>
   </g>
   <g id="patch_27">
    <path d="M 109.092966 77.423948 
Q 109.75029 77.476991 108.735996 77.395142 
" clip-path="url(#p9759e8973b)" style="fill: none; stroke: #0000ff; stroke-width: 1.5; stroke-linecap: round"/>
    <path d="M 104.909824 75.079887 
L 108.735996 77.395142 
L 104.588089 79.066927 
z
" clip-path="url(#p9759e8973b)" style="fill: #0000ff; stroke: #0000ff; stroke-width: 1.5; stroke-linecap: round"/>
   </g>
   <g id="patch_28">
    <path d="M 7.2 222.118125 
L 7.2 22.318125 
" style="fill: none; stroke: #000000; stroke-width: 0.8; stroke-linejoin: miter; stroke-linecap: square"/>
   </g>
   <g id="patch_29">
    <path d="M 207 222.118125 
L 207 22.318125 
" style="fill: none; stroke: #000000; stroke-width: 0.8; stroke-linejoin: miter; stroke-linecap: square"/>
   </g>
   <g id="patch_30">
    <path d="M 7.2 222.118125 
L 207 222.118125 
" style="fill: none; stroke: #000000; stroke-width: 0.8; stroke-linejoin: miter; stroke-linecap: square"/>
   </g>
   <g id="patch_31">
    <path d="M 7.2 22.318125 
L 207 22.318125 
" style="fill: none; stroke: #000000; stroke-width: 0.8; stroke-linejoin: miter; stroke-linecap: square"/>
   </g>
   <g id="text_1">
    <!-- Analytical -->
    <g transform="translate(77.63625 16.318125) scale(0.12 -0.12)">
     <defs>
      <path id="DejaVuSans-41" d="M 2188 4044 
L 1331 1722 
L 3047 1722 
L 2188 4044 
z
M 1831 4666 
L 2547 4666 
L 4325 0 
L 3669 0 
L 3244 1197 
L 1141 1197 
L 716 0 
L 50 0 
L 1831 4666 
z
" transform="scale(0.015625)"/>
      <path id="DejaVuSans-6e" d="M 3513 2113 
L 3513 0 
L 2938 0 
L 2938 2094 
Q 2938 2591 2744 2837 
Q 2550 3084 2163 3084 
Q 1697 3084 1428 2787 
Q 1159 2491 1159 1978 
L 1159 0 
L 581 0 
L 581 3500 
L 1159 3500 
L 1159 2956 
Q 1366 3272 1645 3428 
Q 1925 3584 2291 3584 
Q 2894 3584 3203 3211 
Q 3513 2838 3513 2113 
z
" transform="scale(0.015625)"/>
      <path id="DejaVuSans-61" d="M 2194 1759 
Q 1497 1759 1228 1600 
Q 959 1441 959 1056 
Q 959 750 1161 570 
Q 1363 391 1709 391 
Q 2188 391 2477 730 
Q 2766 1069 2766 1631 
L 2766 1759 
L 2194 1759 
z
M 3341 1997 
L 3341 0 
L 2766 0 
L 2766 531 
Q 2569 213 2275 61 
Q 1981 -91 1556 -91 
Q 1019 -91 701 211 
Q 384 513 384 1019 
Q 384 1609 779 1909 
Q 1175 2209 1959 2209 
L 2766 2209 
L 2766 2266 
Q 2766 2663 2505 2880 
Q 2244 3097 1772 3097 
Q 1472 3097 1187 3025 
Q 903 2953 641 2809 
L 641 3341 
Q 956 3463 1253 3523 
Q 1550 3584 1831 3584 
Q 2591 3584 2966 3190 
Q 3341 2797 3341 1997 
z
" transform="scale(0.015625)"/>
      <path id="DejaVuSans-6c" d="M 603 4863 
L 1178 4863 
L 1178 0 
L 603 0 
L 603 4863 
z
" transform="scale(0.015625)"/>
      <path id="DejaVuSans-79" d="M 2059 -325 
Q 1816 -950 1584 -1140 
Q 1353 -1331 966 -1331 
L 506 -1331 
L 506 -850 
L 844 -850 
Q 1081 -850 1212 -737 
Q 1344 -625 1503 -206 
L 1606 56 
L 191 3500 
L 800 3500 
L 1894 763 
L 2988 3500 
L 3597 3500 
L 2059 -325 
z
" transform="scale(0.015625)"/>
      <path id="DejaVuSans-74" d="M 1172 4494 
L 1172 3500 
L 2356 3500 
L 2356 3053 
L 1172 3053 
L 1172 1153 
Q 1172 725 1289 603 
Q 1406 481 1766 481 
L 2356 481 
L 2356 0 
L 1766 0 
Q 1100 0 847 248 
Q 594 497 594 1153 
L 594 3053 
L 172 3053 
L 172 3500 
L 594 3500 
L 594 4494 
L 1172 4494 
z
" transform="scale(0.015625)"/>
      <path id="DejaVuSans-69" d="M 603 3500 
L 1178 3500 
L 1178 0 
L 603 0 
L 603 3500 
z
M 603 4863 
L 1178 4863 
L 1178 4134 
L 603 4134 
L 603 4863 
z
" transform="scale(0.015625)"/>
      <path id="DejaVuSans-63" d="M 3122 3366 
L 3122 2828 
Q 2878 2963 2633 3030 
Q 2388 3097 2138 3097 
Q 1578 3097 1268 2742 
Q 959 2388 959 1747 
Q 959 1106 1268 751 
Q 1578 397 2138 397 
Q 2388 397 2633 464 
Q 2878 531 3122 666 
L 3122 134 
Q 2881 22 2623 -34 
Q 2366 -91 2075 -91 
Q 1284 -91 818 406 
Q 353 903 353 1747 
Q 353 2603 823 3093 
Q 1294 3584 2113 3584 
Q 2378 3584 2631 3529 
Q 2884 3475 3122 3366 
z
" transform="scale(0.015625)"/>
     </defs>
     <use xlink:href="#DejaVuSans-41"/>
     <use xlink:href="#DejaVuSans-6e" transform="translate(68.408203 0)"/>
     <use xlink:href="#DejaVuSans-61" transform="translate(131.787109 0)"/>
     <use xlink:href="#DejaVuSans-6c" transform="translate(193.066406 0)"/>
     <use xlink:href="#DejaVuSans-79" transform="translate(220.849609 0)"/>
     <use xlink:href="#DejaVuSans-74" transform="translate(280.029297 0)"/>
     <use xlink:href="#DejaVuSans-69" transform="translate(319.238281 0)"/>
     <use xlink:href="#DejaVuSans-63" transform="translate(347.021484 0)"/>
     <use xlink:href="#DejaVuSans-61" transform="translate(402.001953 0)"/>
     <use xlink:href="#DejaVuSans-6c" transform="translate(463.28125 0)"/>
    </g>
   </g>
  </g>
  <g id="axes_2">
   <g id="patch_32">
    <path d="M 217.8 222.118125 
L 417.6 222.118125 
L 417.6 22.318125 
L 217.8 22.318125 
z
" style="fill: #dcdcdc"/>
   </g>
   <g id="patch_33">
    <path d="M 367.65 122.218125 
L 367.642392 123.089873 
L 367.619572 123.961355 
L 367.581545 124.832306 
L 367.528324 125.702461 
L 367.459925 126.571554 
L 367.376369 127.439322 
L 367.27768 128.305499 
L 367.16389 129.169821 
L 367.035033 130.032027 
L 366.891147 130.891851 
L 366.732278 131.749034 
L 366.558473 132.603314 
L 366.369785 133.45443 
L 366.166272 134.302124 
L 365.947995 135.146136 
L 365.715022 135.986211 
L 365.467423 136.822092 
L 365.205273 137.653524 
L 364.928653 138.480254 
L 364.637646 139.302031 
L 364.332342 140.118604 
L 364.012834 140.929724 
L 363.679217 141.735145 
L 363.331596 142.53462 
L 362.970074 143.327907 
L 362.594763 144.114764 
L 362.205776 144.89495 
L 361.803232 145.66823 
L 361.387254 146.434366 
L 360.957969 147.193125 
L 360.515507 147.944277 
L 360.060002 148.687592 
L 359.591595 149.422845 
L 359.110427 150.149811 
L 358.616645 150.868268 
L 358.110399 151.577998 
L 357.591844 152.278785 
L 357.061137 152.970416 
L 356.518441 153.652679 
L 355.96392 154.325366 
L 355.397744 154.988273 
L 354.820084 155.641199 
L 354.231117 156.283943 
L 353.631023 156.916311 
L 353.019984 157.538109 
L 352.398186 158.149148 
L 351.765818 158.749242 
L 351.123074 159.338209 
L 350.470148 159.915869 
L 349.807241 160.482045 
L 349.134554 161.036566 
L 348.452291 161.579262 
L 347.76066 162.109969 
L 347.059873 162.628524 
L 346.350143 163.13477 
L 345.631686 163.628552 
L 344.90472 164.10972 
L 344.169467 164.578127 
L 343.426152 165.033632 
L 342.675 165.476094 
L 341.916241 165.905379 
L 341.150105 166.321357 
L 340.376825 166.723901 
L 339.596639 167.112888 
L 338.809782 167.488199 
L 338.016495 167.849721 
L 337.21702 168.197342 
L 336.411599 168.530959 
L 335.600479 168.850467 
L 334.783906 169.155771 
L 333.962129 169.446778 
L 333.135399 169.723398 
L 332.303967 169.985548 
L 331.468086 170.233147 
L 330.628011 170.46612 
L 329.783999 170.684397 
L 328.936305 170.88791 
L 328.085189 171.076598 
L 327.230909 171.250403 
L 326.373726 171.409272 
L 325.513902 171.553158 
L 324.651696 171.682015 
L 323.787374 171.795805 
L 322.921197 171.894494 
L 322.053429 171.97805 
L 321.184336 172.046449 
L 320.314181 172.09967 
L 319.44323 172.137697 
L 318.571748 172.160517 
L 317.7 172.168125 
L 316.828252 172.160517 
L 315.95677 172.137697 
L 315.085819 172.09967 
L 314.215664 172.046449 
L 313.346571 171.97805 
L 312.478803 171.894494 
L 311.612626 171.795805 
L 310.748304 171.682015 
L 309.886098 171.553158 
L 309.026274 171.409272 
L 308.169091 171.250403 
L 307.314811 171.076598 
L 306.463695 170.88791 
L 305.616001 170.684397 
L 304.771989 170.46612 
L 303.931914 170.233147 
L 303.096033 169.985548 
L 302.264601 169.723398 
L 301.437871 169.446778 
L 300.616094 169.155771 
L 299.799521 168.850467 
L 298.988401 168.530959 
L 298.18298 168.197342 
L 297.383505 167.849721 
L 296.590218 167.488199 
L 295.803361 167.112888 
L 295.023175 166.723901 
L 294.249895 166.321357 
L 293.483759 165.905379 
L 292.725 165.476094 
L 291.973848 165.033632 
L 291.230533 164.578127 
L 290.49528 164.10972 
L 289.768314 163.628552 
L 289.049857 163.13477 
L 288.340127 162.628524 
L 287.63934 162.109969 
L 286.947709 161.579262 
L 286.265446 161.036566 
L 285.592759 160.482045 
L 284.929852 159.915869 
L 284.276926 159.338209 
L 283.634182 158.749242 
L 283.001814 158.149148 
L 282.380016 157.538109 
L 281.768977 156.916311 
L 281.168883 156.283943 
L 280.579916 155.641199 
L 280.002256 154.988273 
L 279.43608 154.325366 
L 278.881559 153.652679 
L 278.338863 152.970416 
L 277.808156 152.278785 
L 277.289601 151.577998 
L 276.783355 150.868268 
L 276.289573 150.149811 
L 275.808405 149.422845 
L 275.339998 148.687592 
L 274.884493 147.944277 
L 274.442031 147.193125 
L 274.012746 146.434366 
L 273.596768 145.66823 
L 273.194224 144.89495 
L 272.805237 144.114764 
L 272.429926 143.327907 
L 272.068404 142.53462 
L 271.720783 141.735145 
L 271.387166 140.929724 
L 271.067658 140.118604 
L 270.762354 139.302031 
L 270.471347 138.480254 
L 270.194727 137.653524 
L 269.932577 136.822092 
L 269.684978 135.986211 
L 269.452005 135.146136 
L 269.233728 134.302124 
L 269.030215 133.45443 
L 268.841527 132.603314 
L 268.667722 131.749034 
L 268.508853 130.891851 
L 268.364967 130.032027 
L 268.23611 129.169821 
L 268.12232 128.305499 
L 268.023631 127.439322 
L 267.940075 126.571554 
L 267.871676 125.702461 
L 267.818455 124.832306 
L 267.780428 123.961355 
L 267.757608 123.089873 
L 267.75 122.218125 
L 267.757608 121.346377 
L 267.780428 120.474895 
L 267.818455 119.603944 
L 267.871676 118.733789 
L 267.940075 117.864696 
L 268.023631 116.996928 
L 268.12232 116.130751 
L 268.23611 115.266429 
L 268.364967 114.404223 
L 268.508853 113.544399 
L 268.667722 112.687216 
L 268.841527 111.832936 
L 269.030215 110.98182 
L 269.233728 110.134126 
L 269.452005 109.290114 
L 269.684978 108.450039 
L 269.932577 107.614158 
L 270.194727 106.782726 
L 270.471347 105.955996 
L 270.762354 105.134219 
L 271.067658 104.317646 
L 271.387166 103.506526 
L 271.720783 102.701105 
L 272.068404 101.90163 
L 272.429926 101.108343 
L 272.805237 100.321486 
L 273.194224 99.5413 
L 273.596768 98.76802 
L 274.012746 98.001884 
L 274.442031 97.243125 
L 274.884493 96.491973 
L 275.339998 95.748658 
L 275.808405 95.013405 
L 276.289573 94.286439 
L 276.783355 93.567982 
L 277.289601 92.858252 
L 277.808156 92.157465 
L 278.338863 91.465834 
L 278.881559 90.783571 
L 279.43608 90.110884 
L 280.002256 89.447977 
L 280.579916 88.795051 
L 281.168883 88.152307 
L 281.768977 87.519939 
L 282.380016 86.898141 
L 283.001814 86.287102 
L 283.634182 85.687008 
L 284.276926 85.098041 
L 284.929852 84.520381 
L 285.592759 83.954205 
L 286.265446 83.399684 
L 286.947709 82.856988 
L 287.63934 82.326281 
L 288.340127 81.807726 
L 289.049857 81.30148 
L 289.768314 80.807698 
L 290.49528 80.32653 
L 291.230533 79.858123 
L 291.973848 79.402618 
L 292.725 78.960156 
L 293.483759 78.530871 
L 294.249895 78.114893 
L 295.023175 77.712349 
L 295.803361 77.323362 
L 296.590218 76.948051 
L 297.383505 76.586529 
L 298.18298 76.238908 
L 298.988401 75.905291 
L 299.799521 75.585783 
L 300.616094 75.280479 
L 301.437871 74.989472 
L 302.264601 74.712852 
L 303.096033 74.450702 
L 303.931914 74.203103 
L 304.771989 73.97013 
L 305.616001 73.751853 
L 306.463695 73.54834 
L 307.314811 73.359652 
L 308.169091 73.185847 
L 309.026274 73.026978 
L 309.886098 72.883092 
L 310.748304 72.754235 
L 311.612626 72.640445 
L 312.478803 72.541756 
L 313.346571 72.4582 
L 314.215664 72.389801 
L 315.085819 72.33658 
L 315.95677 72.298553 
L 316.828252 72.275733 
L 317.7 72.268125 
L 318.571748 72.275733 
L 319.44323 72.298553 
L 320.314181 72.33658 
L 321.184336 72.389801 
L 322.053429 72.4582 
L 322.921197 72.541756 
L 323.787374 72.640445 
L 324.651696 72.754235 
L 325.513902 72.883092 
L 326.373726 73.026978 
L 327.230909 73.185847 
L 328.085189 73.359652 
L 328.936305 73.54834 
L 329.783999 73.751853 
L 330.628011 73.97013 
L 331.468086 74.203103 
L 332.303967 74.450702 
L 333.135399 74.712852 
L 333.962129 74.989472 
L 334.783906 75.280479 
L 335.600479 75.585783 
L 336.411599 75.905291 
L 337.21702 76.238908 
L 338.016495 76.586529 
L 338.809782 76.948051 
L 339.596639 77.323362 
L 340.376825 77.712349 
L 341.150105 78.114893 
L 341.916241 78.530871 
L 342.675 78.960156 
L 343.426152 79.402618 
L 344.169467 79.858123 
L 344.90472 80.32653 
L 345.631686 80.807698 
L 346.350143 81.30148 
L 347.059873 81.807726 
L 347.76066 82.326281 
L 348.452291 82.856988 
L 349.134554 83.399684 
L 349.807241 83.954205 
L 350.470148 84.520381 
L 351.123074 85.098041 
L 351.765818 85.687008 
L 352.398186 86.287102 
L 353.019984 86.898141 
L 353.631023 87.519939 
L 354.231117 88.152307 
L 354.820084 88.795051 
L 355.397744 89.447977 
L 355.96392 90.110884 
L 356.518441 90.783571 
L 357.061137 91.465834 
L 357.591844 92.157465 
L 358.110399 92.858252 
L 358.616645 93.567982 
L 359.110427 94.286439 
L 359.591595 95.013405 
L 360.060002 95.748658 
L 360.515507 96.491973 
L 360.957969 97.243125 
L 361.387254 98.001884 
L 361.803232 98.76802 
L 362.205776 99.5413 
L 362.594763 100.321486 
L 362.970074 101.108343 
L 363.331596 101.90163 
L 363.679217 102.701105 
L 364.012834 103.506526 
L 364.332342 104.317646 
L 364.637646 105.134219 
L 364.928653 105.955996 
L 365.205273 106.782726 
L 365.467423 107.614158 
L 365.715022 108.450039 
L 365.947995 109.290114 
L 366.166272 110.134126 
L 366.369785 110.98182 
L 366.558473 111.832936 
L 366.732278 112.687216 
L 366.891147 113.544399 
L 367.035033 114.404223 
L 367.16389 115.266429 
L 367.27768 116.130751 
L 367.376369 116.996928 
L 367.459925 117.864696 
L 367.528324 118.733789 
L 367.581545 119.603944 
L 367.619572 120.474895 
L 367.642392 121.346377 
z
" clip-path="url(#p19d5edd9f5)" style="fill: #ffffff; stroke: #ffffff; stroke-linejoin: miter"/>
   </g>
   <g id="line2d_2">
    <path d="M 367.65 122.218125 
L 367.528324 125.702461 
L 367.16389 129.169821 
L 366.558473 132.603314 
L 365.715022 135.986211 
L 364.637646 139.302031 
L 363.331596 142.53462 
L 361.803232 145.66823 
L 360.060002 148.687592 
L 358.110399 151.577998 
L 355.96392 154.325366 
L 353.631023 156.916311 
L 351.123074 159.338209 
L 348.452291 161.579262 
L 345.631686 163.628552 
L 342.675 165.476094 
L 339.596639 167.112888 
L 336.411599 168.530959 
L 333.135399 169.723398 
L 329.783999 170.684397 
L 326.373726 171.409272 
L 322.921197 171.894494 
L 319.44323 172.137697 
L 315.95677 172.137697 
L 312.478803 171.894494 
L 309.026274 171.409272 
L 305.616001 170.684397 
L 302.264601 169.723398 
L 298.988401 168.530959 
L 295.803361 167.112888 
L 292.725 165.476094 
L 289.768314 163.628552 
L 286.947709 161.579262 
L 284.276926 159.338209 
L 281.768977 156.916311 
L 279.43608 154.325366 
L 277.289601 151.577998 
L 275.339998 148.687592 
L 273.596768 145.66823 
L 272.068404 142.53462 
L 270.762354 139.302031 
L 269.684978 135.986211 
L 268.841527 132.603314 
L 268.23611 129.169821 
L 267.871676 125.702461 
L 267.75 122.218125 
L 267.871676 118.733789 
L 268.23611 115.266429 
L 268.841527 111.832936 
L 269.684978 108.450039 
L 270.762354 105.134219 
L 272.068404 101.90163 
L 273.596768 98.76802 
L 275.339998 95.748658 
L 277.289601 92.858252 
L 279.43608 90.110884 
L 281.768977 87.519939 
L 284.276926 85.098041 
L 286.947709 82.856988 
L 289.768314 80.807698 
L 292.725 78.960156 
L 295.803361 77.323362 
L 298.988401 75.905291 
L 302.264601 74.712852 
L 305.616001 73.751853 
L 309.026274 73.026978 
L 312.478803 72.541756 
L 315.95677 72.298553 
L 319.44323 72.298553 
L 322.921197 72.541756 
L 326.373726 73.026978 
L 329.783999 73.751853 
L 333.135399 74.712852 
L 336.411599 75.905291 
L 339.596639 77.323362 
L 342.675 78.960156 
L 345.631686 80.807698 
L 348.452291 82.856988 
L 351.123074 85.098041 
L 353.631023 87.519939 
L 355.96392 90.110884 
L 358.110399 92.858252 
L 360.060002 95.748658 
L 361.803232 98.76802 
L 363.331596 101.90163 
L 364.637646 105.134219 
L 365.715022 108.450039 
L 366.558473 111.832936 
L 367.16389 115.266429 
L 367.528324 118.733789 
L 367.65 122.218125 
L 367.65 122.218125 
" clip-path="url(#p19d5edd9f5)" style="fill: none; stroke: #ff0000; stroke-linecap: square"/>
   </g>
   <g id="LineCollection_2">
    <path d="M 217.8 202.138125 
L 217.8 202.138125 
L 224.376463 203.18889 
L 230.941055 204.31149 
L 237.494715 205.496393 
L 244.039544 206.729287 
L 250.578948 207.990826 
L 257.117362 209.257479 
L 263.659888 210.502484 
L 270.211788 211.696902 
L 276.777689 212.811167 
L 283.361064 213.816249 
L 289.963571 214.685846 
L 296.584911 215.396891 
L 303.222843 215.929833 
L 309.87333 216.270215 
L 316.531049 216.409015 
L 323.189887 216.342443 
L 329.843593 216.072342 
L 336.486502 215.60595 
L 343.11405 214.955647 
L 349.723347 214.139406 
L 356.313383 213.179181 
L 362.885153 212.100216 
L 369.441518 210.930687 
L 375.98676 209.700098 
L 382.526027 208.437911 
L 389.064515 207.171699 
L 395.607011 205.92639 
L 402.157294 204.722851 
L 408.717897 203.577122 
L 415.290166 202.500416 
L 417.6 202.135315 
" clip-path="url(#p19d5edd9f5)" style="fill: none; stroke: #0000ff; stroke-width: 1.5"/>
    <path d="M 217.8 191.482125 
L 217.8 191.482125 
L 224.358463 192.639281 
L 230.897767 193.900245 
L 237.417955 195.256759 
L 243.921015 196.693381 
L 250.411277 198.187056 
L 256.895329 199.70765 
L 263.381326 201.21977 
L 269.878034 202.684721 
L 276.393668 204.062508 
L 282.934494 205.314277 
L 289.503939 206.40441 
L 296.102271 207.30187 
L 302.726455 207.981226 
L 309.370571 208.423014 
L 316.026483 208.614924 
L 322.684892 208.551498 
L 329.336124 208.234576 
L 335.971276 207.673237 
L 342.583219 206.88291 
L 349.167468 205.88625 
L 355.722521 204.711734 
L 362.250236 203.392865 
L 368.755641 201.967115 
L 375.245981 200.473785 
L 381.729848 198.95255 
L 388.21603 197.441251 
L 394.712024 195.97281 
L 401.223277 194.573829 
L 407.752912 193.263586 
L 414.301868 192.053759 
L 417.6 191.47177 
" clip-path="url(#p19d5edd9f5)" style="fill: none; stroke: #0000ff; stroke-width: 1.5"/>
    <path d="M 217.8 180.826125 
L 217.8 180.826125 
L 224.342499 182.069326 
L 230.855652 183.457899 
L 237.337017 184.988112 
L 243.787105 186.645595 
L 250.210572 188.403924 
L 256.616673 190.224914 
L 263.018473 192.06112 
L 269.430897 193.859689 
L 275.86809 195.566667 
L 282.341207 197.13038 
L 288.857207 198.502682 
L 295.417711 199.641499 
L 302.018638 200.513891 
L 308.651426 201.094769 
L 315.303891 201.367134 
L 321.961694 201.323093 
L 328.610058 200.963874 
L 335.235122 200.29981 
L 341.825558 199.350364 
L 348.37395 198.142998 
L 354.87775 196.713236 
L 361.339843 195.104209 
L 367.768604 193.365745 
L 374.176463 191.551047 
L 380.578081 189.714163 
L 386.98801 187.906625 
L 393.418338 186.173493 
L 399.877041 184.549864 
L 406.367518 183.058756 
L 412.889286 181.711171 
L 417.6 180.792961 
" clip-path="url(#p19d5edd9f5)" style="fill: none; stroke: #0000ff; stroke-width: 1.5"/>
    <path d="M 217.8 170.170125 
L 217.8 170.170125 
L 224.334201 171.454688 
L 230.826654 172.935121 
L 237.269296 174.618922 
L 243.657708 176.498403 
L 249.994463 178.546139 
L 256.291226 180.714538 
L 262.568261 182.93978 
L 268.850947 185.148802 
L 275.164614 187.26676 
L 281.529796 189.222865 
L 287.959223 190.95404 
L 294.456799 192.406529 
L 301.017861 193.535781 
L 307.629954 194.308872 
L 314.275168 194.704117 
L 320.932151 194.710372 
L 327.578172 194.327415 
L 334.19176 193.566368 
L 340.754752 192.448012 
L 347.254602 191.005189 
L 353.68628 189.28189 
L 360.053431 187.331911 
L 366.368526 185.218092 
L 372.651926 183.01108 
L 378.928921 180.785734 
L 385.225 178.615303 
L 391.560669 176.564024 
L 397.947805 174.679968 
L 404.389139 172.990996 
L 410.880382 171.505202 
L 417.413537 170.215387 
L 417.6 170.181379 
" clip-path="url(#p19d5edd9f5)" style="fill: none; stroke: #0000ff; stroke-width: 1.5"/>
    <path d="M 217.8 159.514125 
L 217.8 159.514125 
L 224.341352 160.759956 
L 230.829932 162.254425 
L 237.247161 164.029009 
L 243.576211 166.095913 
L 249.809932 168.435687 
L 255.958803 170.991843 
L 262.053279 173.676795 
L 268.136788 176.386727 
L 274.254789 179.016446 
L 280.445373 181.468688 
L 286.732666 183.65889 
L 293.12504 185.517311 
L 299.616468 186.989285 
L 306.189899 188.032796 
L 312.819685 188.618742 
L 319.474184 188.731312 
L 326.119656 188.367214 
L 332.723479 187.536458 
L 339.256502 186.261234 
L 345.696961 184.577919 
L 352.033422 182.535614 
L 358.267664 180.197478 
L 364.416714 177.641212 
L 370.511701 174.957528 
L 376.595512 172.248663 
L 382.714624 169.621194 
L 388.906832 167.172561 
L 395.192127 164.975413 
L 401.570689 163.066123 
L 408.028717 161.445034 
L 414.547652 160.087887 
L 417.6 159.512605 
" clip-path="url(#p19d5edd9f5)" style="fill: none; stroke: #0000ff; stroke-width: 1.5"/>
    <path d="M 217.8 148.858125 
L 217.8 148.858125 
L 224.370153 149.9408 
L 230.886485 151.306311 
L 237.316977 153.026835 
L 243.619932 155.164462 
L 249.75699 157.739605 
L 255.719944 160.698485 
L 261.548298 163.9182 
L 267.319681 167.240779 
L 273.12063 170.510453 
L 279.022656 173.591877 
L 285.06954 176.375193 
L 291.278223 178.772018 
L 297.643304 180.712503 
L 304.14121 182.144156 
L 310.735652 183.029885 
L 317.381472 183.347344 
L 324.029715 183.088338 
L 330.6315 182.258962 
L 337.141409 180.880451 
L 343.521739 178.988715 
L 349.747233 176.634858 
L 355.810335 173.886708 
L 361.725685 170.830779 
L 367.53463 167.574887 
L 373.30639 164.252481 
L 379.12723 161.018448 
L 385.077215 158.032132 
L 391.199658 155.42119 
L 397.489663 153.244894 
L 403.910549 151.488659 
L 410.420313 150.092687 
L 416.986268 148.985716 
L 417.6 148.894269 
" clip-path="url(#p19d5edd9f5)" style="fill: none; stroke: #0000ff; stroke-width: 1.5"/>
    <path d="M 217.8 138.202125 
L 217.8 138.202125 
L 224.415904 138.959248 
L 230.997146 139.968218 
L 237.510014 141.341808 
L 243.888217 143.232632 
L 250.022572 145.794279 
L 255.810441 149.06348 
L 261.25861 152.881612 
L 266.512768 156.970884 
L 271.759708 161.070478 
L 277.145847 164.98205 
L 282.755869 168.560979 
L 288.623092 171.697495 
L 294.742294 174.306523 
L 301.080008 176.323846 
L 307.586391 177.700804 
L 314.19923 178.406889 
L 320.849888 178.427174 
L 327.467318 177.760895 
L 333.982402 176.423305 
L 340.332514 174.443552 
L 346.466686 171.868852 
L 352.351526 168.763561 
L 357.979004 165.210182 
L 363.379352 161.316852 
L 368.634126 157.226783 
L 373.888172 153.136567 
L 379.330413 149.306417 
L 385.107572 146.014699 
L 391.230756 143.42604 
L 397.599809 141.506357 
L 404.107371 140.109228 
L 410.685684 139.082738 
L 417.299985 138.312538 
L 417.6 138.282366 
" clip-path="url(#p19d5edd9f5)" style="fill: none; stroke: #0000ff; stroke-width: 1.5"/>
    <path d="M 217.8 127.546125 
L 217.8 127.546125 
L 224.45406 127.82131 
L 231.10248 128.203226 
L 237.737639 128.761142 
L 244.336437 129.635042 
L 250.812468 131.125946 
L 250.812468 131.125946 
L 255.297726 132.909059 
L 259.477519 135.663604 
L 262.559959 138.662329 
L 265.578823 142.35067 
L 269.596396 147.657353 
L 273.780979 152.830396 
L 278.344544 157.667539 
L 283.355753 162.036918 
L 288.80961 165.837238 
L 294.662801 168.987834 
L 300.845225 171.427642 
L 307.279992 173.082738 
L 313.866737 173.967603 
L 320.513174 174.033145 
L 327.118349 173.285895 
L 333.580706 171.726442 
L 339.81298 169.412648 
L 345.722195 166.366188 
L 351.245413 162.664722 
L 356.330158 158.379256 
L 360.966224 153.608683 
L 365.206592 148.47918 
L 369.235653 143.178616 
L 373.495628 138.071403 
L 373.495628 138.071403 
L 377.014805 134.954457 
L 381.185995 132.549406 
L 385.354446 131.047682 
L 390.331784 129.904013 
L 396.790971 128.977622 
L 403.422071 128.376793 
L 410.068846 127.969189 
L 416.722112 127.677104 
L 417.6 127.644364 
" clip-path="url(#p19d5edd9f5)" style="fill: none; stroke: #0000ff; stroke-width: 1.5"/>
    <path d="M 217.8 116.890125 
L 217.8 116.890125 
L 224.45406 116.61494 
L 231.10248 116.233024 
L 237.737639 115.675108 
L 244.336437 114.801208 
L 250.812468 113.310304 
L 250.812468 113.310304 
L 255.297726 111.527191 
L 259.477519 108.772646 
L 262.559959 105.773921 
L 265.578823 102.08558 
L 269.596396 96.778897 
L 273.780979 91.605854 
L 278.344544 86.768711 
L 283.355753 82.399332 
L 288.80961 78.599012 
L 294.662801 75.448416 
L 300.845225 73.008608 
L 307.279992 71.353512 
L 313.866737 70.468647 
L 320.513174 70.403105 
L 327.118349 71.150355 
L 333.580706 72.709808 
L 339.81298 75.023602 
L 345.722195 78.070062 
L 351.245413 81.771528 
L 356.330158 86.056994 
L 360.966224 90.827567 
L 365.206592 95.95707 
L 369.235653 101.257634 
L 373.495628 106.364847 
L 373.495628 106.364847 
L 377.014805 109.481793 
L 381.185995 111.886844 
L 385.354446 113.388568 
L 390.331784 114.532237 
L 396.790971 115.458628 
L 403.422071 116.059457 
L 410.068846 116.467061 
L 416.722112 116.759146 
L 417.6 116.791886 
" clip-path="url(#p19d5edd9f5)" style="fill: none; stroke: #0000ff; stroke-width: 1.5"/>
    <path d="M 217.8 106.234125 
L 217.8 106.234125 
L 224.415904 105.477002 
L 230.997146 104.468032 
L 237.510014 103.094442 
L 243.888217 101.203618 
L 250.022572 98.641971 
L 255.810441 95.37277 
L 261.25861 91.554638 
L 266.512768 87.465366 
L 271.759708 83.365772 
L 277.145847 79.4542 
L 282.755869 75.875271 
L 288.623092 72.738755 
L 294.742294 70.129727 
L 301.080008 68.112404 
L 307.586391 66.735446 
L 314.19923 66.029361 
L 320.849888 66.009076 
L 327.467318 66.675355 
L 333.982402 68.012945 
L 340.332514 69.992698 
L 346.466686 72.567398 
L 352.351526 75.672689 
L 357.979004 79.226068 
L 363.379352 83.119398 
L 368.634126 87.209467 
L 373.888172 91.299683 
L 379.330413 95.129833 
L 385.107572 98.421551 
L 391.230756 101.01021 
L 397.599809 102.929893 
L 404.107371 104.327022 
L 410.685684 105.353512 
L 417.299985 106.123712 
L 417.6 106.153884 
" clip-path="url(#p19d5edd9f5)" style="fill: none; stroke: #0000ff; stroke-width: 1.5"/>
    <path d="M 217.8 95.578125 
L 217.8 95.578125 
L 224.370153 94.49545 
L 230.886485 93.129939 
L 237.316977 91.409415 
L 243.619932 89.271788 
L 249.75699 86.696645 
L 255.719944 83.737765 
L 261.548298 80.51805 
L 267.319681 77.195471 
L 273.12063 73.925797 
L 279.022656 70.844373 
L 285.06954 68.061057 
L 291.278223 65.664232 
L 297.643304 63.723747 
L 304.14121 62.292094 
L 310.735652 61.406365 
L 317.381472 61.088906 
L 324.029715 61.347912 
L 330.6315 62.177288 
L 337.141409 63.555799 
L 343.521739 65.447535 
L 349.747233 67.801392 
L 355.810335 70.549542 
L 361.725685 73.605471 
L 367.53463 76.861363 
L 373.30639 80.183769 
L 379.12723 83.417802 
L 385.077215 86.404118 
L 391.199658 89.01506 
L 397.489663 91.191356 
L 403.910549 92.947591 
L 410.420313 94.343563 
L 416.986268 95.450534 
L 417.6 95.541981 
" clip-path="url(#p19d5edd9f5)" style="fill: none; stroke: #0000ff; stroke-width: 1.5"/>
    <path d="M 217.8 84.922125 
L 217.8 84.922125 
L 224.341352 83.676294 
L 230.829932 82.181825 
L 237.247161 80.407241 
L 243.576211 78.340337 
L 249.809932 76.000563 
L 255.958803 73.444407 
L 262.053279 70.759455 
L 268.136788 68.049523 
L 274.254789 65.419804 
L 280.445373 62.967562 
L 286.732666 60.77736 
L 293.12504 58.918939 
L 299.616468 57.446965 
L 306.189899 56.403454 
L 312.819685 55.817508 
L 319.474184 55.704938 
L 326.119656 56.069036 
L 332.723479 56.899792 
L 339.256502 58.175016 
L 345.696961 59.858331 
L 352.033422 61.900636 
L 358.267664 64.238772 
L 364.416714 66.795038 
L 370.511701 69.478722 
L 376.595512 72.187587 
L 382.714624 74.815056 
L 388.906832 77.263689 
L 395.192127 79.460837 
L 401.570689 81.370127 
L 408.028717 82.991216 
L 414.547652 84.348363 
L 417.6 84.923645 
" clip-path="url(#p19d5edd9f5)" style="fill: none; stroke: #0000ff; stroke-width: 1.5"/>
    <path d="M 217.8 74.266125 
L 217.8 74.266125 
L 224.334201 72.981562 
L 230.826654 71.501129 
L 237.269296 69.817328 
L 243.657708 67.937847 
L 249.994463 65.890111 
L 256.291226 63.721712 
L 262.568261 61.49647 
L 268.850947 59.287448 
L 275.164614 57.16949 
L 281.529796 55.213385 
L 287.959223 53.48221 
L 294.456799 52.029721 
L 301.017861 50.900469 
L 307.629954 50.127378 
L 314.275168 49.732133 
L 320.932151 49.725878 
L 327.578172 50.108835 
L 334.19176 50.869882 
L 340.754752 51.988238 
L 347.254602 53.431061 
L 353.68628 55.15436 
L 360.053431 57.104339 
L 366.368526 59.218158 
L 372.651926 61.42517 
L 378.928921 63.650516 
L 385.225 65.820947 
L 391.560669 67.872226 
L 397.947805 69.756282 
L 404.389139 71.445254 
L 410.880382 72.931048 
L 417.413537 74.220863 
L 417.6 74.254871 
" clip-path="url(#p19d5edd9f5)" style="fill: none; stroke: #0000ff; stroke-width: 1.5"/>
    <path d="M 217.8 63.610125 
L 217.8 63.610125 
L 224.342499 62.366924 
L 230.855652 60.978351 
L 237.337017 59.448138 
L 243.787105 57.790655 
L 250.210572 56.032326 
L 256.616673 54.211336 
L 263.018473 52.37513 
L 269.430897 50.576561 
L 275.86809 48.869583 
L 282.341207 47.30587 
L 288.857207 45.933568 
L 295.417711 44.794751 
L 302.018638 43.922359 
L 308.651426 43.341481 
L 315.303891 43.069116 
L 321.961694 43.113157 
L 328.610058 43.472376 
L 335.235122 44.13644 
L 341.825558 45.085886 
L 348.37395 46.293252 
L 354.87775 47.723014 
L 361.339843 49.332041 
L 367.768604 51.070505 
L 374.176463 52.885203 
L 380.578081 54.722087 
L 386.98801 56.529625 
L 393.418338 58.262757 
L 399.877041 59.886386 
L 406.367518 61.377494 
L 412.889286 62.725079 
L 417.6 63.643289 
" clip-path="url(#p19d5edd9f5)" style="fill: none; stroke: #0000ff; stroke-width: 1.5"/>
    <path d="M 217.8 52.954125 
L 217.8 52.954125 
L 224.358463 51.796969 
L 230.897767 50.536005 
L 237.417955 49.179491 
L 243.921015 47.742869 
L 250.411277 46.249194 
L 256.895329 44.7286 
L 263.381326 43.21648 
L 269.878034 41.751529 
L 276.393668 40.373742 
L 282.934494 39.121973 
L 289.503939 38.03184 
L 296.102271 37.13438 
L 302.726455 36.455024 
L 309.370571 36.013236 
L 316.026483 35.821326 
L 322.684892 35.884752 
L 329.336124 36.201674 
L 335.971276 36.763013 
L 342.583219 37.55334 
L 349.167468 38.55 
L 355.722521 39.724516 
L 362.250236 41.043385 
L 368.755641 42.469135 
L 375.245981 43.962465 
L 381.729848 45.4837 
L 388.21603 46.994999 
L 394.712024 48.46344 
L 401.223277 49.862421 
L 407.752912 51.172664 
L 414.301868 52.382491 
L 417.6 52.96448 
" clip-path="url(#p19d5edd9f5)" style="fill: none; stroke: #0000ff; stroke-width: 1.5"/>
    <path d="M 217.8 42.298125 
L 217.8 42.298125 
L 224.376463 41.24736 
L 230.941055 40.12476 
L 237.494715 38.939857 
L 244.039544 37.706963 
L 250.578948 36.445424 
L 257.117362 35.178771 
L 263.659888 33.933766 
L 270.211788 32.739348 
L 276.777689 31.625083 
L 283.361064 30.620001 
L 289.963571 29.750404 
L 296.584911 29.039359 
L 303.222843 28.506417 
L 309.87333 28.166035 
L 316.531049 28.027235 
L 323.189887 28.093807 
L 329.843593 28.363908 
L 336.486502 28.8303 
L 343.11405 29.480603 
L 349.723347 30.296844 
L 356.313383 31.257069 
L 362.885153 32.336034 
L 369.441518 33.505563 
L 375.98676 34.736152 
L 382.526027 35.998339 
L 389.064515 37.264551 
L 395.607011 38.50986 
L 402.157294 39.713399 
L 408.717897 40.859128 
L 415.290166 41.935834 
L 417.6 42.300935 
" clip-path="url(#p19d5edd9f5)" style="fill: none; stroke: #0000ff; stroke-width: 1.5"/>
   </g>
   <g id="patch_34">
    <path d="M 318.530651 216.389024 
Q 319.19556 216.382376 318.183501 216.392495 
" clip-path="url(#p19d5edd9f5)" style="fill: none; stroke: #0000ff; stroke-width: 1.5; stroke-linecap: round"/>
    <path d="M 314.163706 214.432583 
L 318.183501 216.392495 
L 314.203695 218.432383 
z
" clip-path="url(#p19d5edd9f5)" style="fill: #0000ff; stroke: #0000ff; stroke-width: 1.5; stroke-linecap: round"/>
   </g>
   <g id="patch_35">
    <path d="M 318.025956 208.595878 
Q 318.690822 208.589544 317.678713 208.599185 
" clip-path="url(#p19d5edd9f5)" style="fill: none; stroke: #0000ff; stroke-width: 1.5; stroke-linecap: round"/>
    <path d="M 313.659843 206.637377 
L 317.678713 208.599185 
L 313.697945 210.637196 
z
" clip-path="url(#p19d5edd9f5)" style="fill: #0000ff; stroke: #0000ff; stroke-width: 1.5; stroke-linecap: round"/>
   </g>
   <g id="patch_36">
    <path d="M 317.303182 201.353909 
Q 317.967987 201.349511 316.955778 201.356207 
" clip-path="url(#p19d5edd9f5)" style="fill: none; stroke: #0000ff; stroke-width: 1.5; stroke-linecap: round"/>
    <path d="M 312.942636 199.38271 
L 316.955778 201.356207 
L 312.969095 203.382623 
z
" clip-path="url(#p19d5edd9f5)" style="fill: #0000ff; stroke: #0000ff; stroke-width: 1.5; stroke-linecap: round"/>
   </g>
   <g id="patch_37">
    <path d="M 316.274213 194.705995 
Q 316.938936 194.70662 315.926609 194.705669 
" clip-path="url(#p19d5edd9f5)" style="fill: none; stroke: #0000ff; stroke-width: 1.5; stroke-linecap: round"/>
    <path d="M 311.92849 192.701911 
L 315.926609 194.705669 
L 311.924732 196.701909 
z
" clip-path="url(#p19d5edd9f5)" style="fill: #0000ff; stroke: #0000ff; stroke-width: 1.5; stroke-linecap: round"/>
   </g>
   <g id="patch_38">
    <path d="M 314.817984 188.652546 
Q 315.482459 188.663786 314.470123 188.646661 
" clip-path="url(#p19d5edd9f5)" style="fill: none; stroke: #0000ff; stroke-width: 1.5; stroke-linecap: round"/>
    <path d="M 310.504524 186.579292 
L 314.470123 188.646661 
L 310.436868 190.578719 
z
" clip-path="url(#p19d5edd9f5)" style="fill: #0000ff; stroke: #0000ff; stroke-width: 1.5; stroke-linecap: round"/>
   </g>
   <g id="patch_39">
    <path d="M 319.377892 183.269566 
Q 320.041743 183.243704 319.029814 183.283127 
" clip-path="url(#p19d5edd9f5)" style="fill: none; stroke: #0000ff; stroke-width: 1.5; stroke-linecap: round"/>
    <path d="M 314.954987 181.44036 
L 319.029814 183.283127 
L 315.110704 185.437328 
z
" clip-path="url(#p19d5edd9f5)" style="fill: #0000ff; stroke: #0000ff; stroke-width: 1.5; stroke-linecap: round"/>
   </g>
   <g id="patch_40">
    <path d="M 316.196376 178.41298 
Q 316.860468 178.415006 315.847516 178.411916 
" clip-path="url(#p19d5edd9f5)" style="fill: none; stroke: #0000ff; stroke-width: 1.5; stroke-linecap: round"/>
    <path d="M 311.853635 176.399725 
L 315.847516 178.411916 
L 311.841434 180.399706 
z
" clip-path="url(#p19d5edd9f5)" style="fill: #0000ff; stroke: #0000ff; stroke-width: 1.5; stroke-linecap: round"/>
   </g>
   <g id="patch_41">
    <path d="M 315.869106 173.987348 
Q 316.529531 173.993861 315.512986 173.983837 
" clip-path="url(#p19d5edd9f5)" style="fill: none; stroke: #0000ff; stroke-width: 1.5; stroke-linecap: round"/>
    <path d="M 311.532902 171.944491 
L 315.512986 173.983837 
L 311.493459 175.944296 
z
" clip-path="url(#p19d5edd9f5)" style="fill: #0000ff; stroke: #0000ff; stroke-width: 1.5; stroke-linecap: round"/>
   </g>
   <g id="patch_42">
    <path d="M 315.869106 70.448902 
Q 316.529531 70.442389 315.512986 70.452413 
" clip-path="url(#p19d5edd9f5)" style="fill: none; stroke: #0000ff; stroke-width: 1.5; stroke-linecap: round"/>
    <path d="M 311.493459 68.491954 
L 315.512986 70.452413 
L 311.532902 72.491759 
z
" clip-path="url(#p19d5edd9f5)" style="fill: #0000ff; stroke: #0000ff; stroke-width: 1.5; stroke-linecap: round"/>
   </g>
   <g id="patch_43">
    <path d="M 316.196376 66.02327 
Q 316.860468 66.021244 315.847516 66.024334 
" clip-path="url(#p19d5edd9f5)" style="fill: none; stroke: #0000ff; stroke-width: 1.5; stroke-linecap: round"/>
    <path d="M 311.841434 64.036544 
L 315.847516 66.024334 
L 311.853635 68.036525 
z
" clip-path="url(#p19d5edd9f5)" style="fill: #0000ff; stroke: #0000ff; stroke-width: 1.5; stroke-linecap: round"/>
   </g>
   <g id="patch_44">
    <path d="M 319.377892 61.166684 
Q 320.041743 61.192546 319.029814 61.153123 
" clip-path="url(#p19d5edd9f5)" style="fill: none; stroke: #0000ff; stroke-width: 1.5; stroke-linecap: round"/>
    <path d="M 315.110704 58.998922 
L 319.029814 61.153123 
L 314.954987 62.99589 
z
" clip-path="url(#p19d5edd9f5)" style="fill: #0000ff; stroke: #0000ff; stroke-width: 1.5; stroke-linecap: round"/>
   </g>
   <g id="patch_45">
    <path d="M 314.817984 55.783704 
Q 315.482459 55.772464 314.470123 55.789589 
" clip-path="url(#p19d5edd9f5)" style="fill: none; stroke: #0000ff; stroke-width: 1.5; stroke-linecap: round"/>
    <path d="M 310.436868 53.857531 
L 314.470123 55.789589 
L 310.504524 57.856958 
z
" clip-path="url(#p19d5edd9f5)" style="fill: #0000ff; stroke: #0000ff; stroke-width: 1.5; stroke-linecap: round"/>
   </g>
   <g id="patch_46">
    <path d="M 316.274213 49.730255 
Q 316.938936 49.72963 315.926609 49.730581 
" clip-path="url(#p19d5edd9f5)" style="fill: none; stroke: #0000ff; stroke-width: 1.5; stroke-linecap: round"/>
    <path d="M 311.924732 47.734341 
L 315.926609 49.730581 
L 311.92849 51.734339 
z
" clip-path="url(#p19d5edd9f5)" style="fill: #0000ff; stroke: #0000ff; stroke-width: 1.5; stroke-linecap: round"/>
   </g>
   <g id="patch_47">
    <path d="M 317.303182 43.082341 
Q 317.967987 43.086739 316.955778 43.080043 
" clip-path="url(#p19d5edd9f5)" style="fill: none; stroke: #0000ff; stroke-width: 1.5; stroke-linecap: round"/>
    <path d="M 312.969095 41.053627 
L 316.955778 43.080043 
L 312.942636 45.05354 
z
" clip-path="url(#p19d5edd9f5)" style="fill: #0000ff; stroke: #0000ff; stroke-width: 1.5; stroke-linecap: round"/>
   </g>
   <g id="patch_48">
    <path d="M 318.025956 35.840372 
Q 318.690822 35.846706 317.678713 35.837065 
" clip-path="url(#p19d5edd9f5)" style="fill: none; stroke: #0000ff; stroke-width: 1.5; stroke-linecap: round"/>
    <path d="M 313.697945 33.799054 
L 317.678713 35.837065 
L 313.659843 37.798873 
z
" clip-path="url(#p19d5edd9f5)" style="fill: #0000ff; stroke: #0000ff; stroke-width: 1.5; stroke-linecap: round"/>
   </g>
   <g id="patch_49">
    <path d="M 318.530651 28.047226 
Q 319.19556 28.053874 318.183501 28.043755 
" clip-path="url(#p19d5edd9f5)" style="fill: none; stroke: #0000ff; stroke-width: 1.5; stroke-linecap: round"/>
    <path d="M 314.203695 26.003867 
L 318.183501 28.043755 
L 314.163706 30.003667 
z
" clip-path="url(#p19d5edd9f5)" style="fill: #0000ff; stroke: #0000ff; stroke-width: 1.5; stroke-linecap: round"/>
   </g>
   <g id="patch_50">
    <path d="M 217.8 222.118125 
L 217.8 22.318125 
" style="fill: none; stroke: #000000; stroke-width: 0.8; stroke-linejoin: miter; stroke-linecap: square"/>
   </g>
   <g id="patch_51">
    <path d="M 417.6 222.118125 
L 417.6 22.318125 
" style="fill: none; stroke: #000000; stroke-width: 0.8; stroke-linejoin: miter; stroke-linecap: square"/>
   </g>
   <g id="patch_52">
    <path d="M 217.8 222.118125 
L 417.6 222.118125 
" style="fill: none; stroke: #000000; stroke-width: 0.8; stroke-linejoin: miter; stroke-linecap: square"/>
   </g>
   <g id="patch_53">
    <path d="M 217.8 22.318125 
L 417.6 22.318125 
" style="fill: none; stroke: #000000; stroke-width: 0.8; stroke-linejoin: miter; stroke-linecap: square"/>
   </g>
   <g id="text_2">
    <!-- BEM (N=360) -->
    <g transform="translate(277.0575 16.318125) scale(0.12 -0.12)">
     <defs>
      <path id="DejaVuSans-42" d="M 1259 2228 
L 1259 519 
L 2272 519 
Q 2781 519 3026 730 
Q 3272 941 3272 1375 
Q 3272 1813 3026 2020 
Q 2781 2228 2272 2228 
L 1259 2228 
z
M 1259 4147 
L 1259 2741 
L 2194 2741 
Q 2656 2741 2882 2914 
Q 3109 3088 3109 3444 
Q 3109 3797 2882 3972 
Q 2656 4147 2194 4147 
L 1259 4147 
z
M 628 4666 
L 2241 4666 
Q 2963 4666 3353 4366 
Q 3744 4066 3744 3513 
Q 3744 3084 3544 2831 
Q 3344 2578 2956 2516 
Q 3422 2416 3680 2098 
Q 3938 1781 3938 1306 
Q 3938 681 3513 340 
Q 3088 0 2303 0 
L 628 0 
L 628 4666 
z
" transform="scale(0.015625)"/>
      <path id="DejaVuSans-45" d="M 628 4666 
L 3578 4666 
L 3578 4134 
L 1259 4134 
L 1259 2753 
L 3481 2753 
L 3481 2222 
L 1259 2222 
L 1259 531 
L 3634 531 
L 3634 0 
L 628 0 
L 628 4666 
z
" transform="scale(0.015625)"/>
      <path id="DejaVuSans-4d" d="M 628 4666 
L 1569 4666 
L 2759 1491 
L 3956 4666 
L 4897 4666 
L 4897 0 
L 4281 0 
L 4281 4097 
L 3078 897 
L 2444 897 
L 1241 4097 
L 1241 0 
L 628 0 
L 628 4666 
z
" transform="scale(0.015625)"/>
      <path id="DejaVuSans-20" transform="scale(0.015625)"/>
      <path id="DejaVuSans-28" d="M 1984 4856 
Q 1566 4138 1362 3434 
Q 1159 2731 1159 2009 
Q 1159 1288 1364 580 
Q 1569 -128 1984 -844 
L 1484 -844 
Q 1016 -109 783 600 
Q 550 1309 550 2009 
Q 550 2706 781 3412 
Q 1013 4119 1484 4856 
L 1984 4856 
z
" transform="scale(0.015625)"/>
      <path id="DejaVuSans-4e" d="M 628 4666 
L 1478 4666 
L 3547 763 
L 3547 4666 
L 4159 4666 
L 4159 0 
L 3309 0 
L 1241 3903 
L 1241 0 
L 628 0 
L 628 4666 
z
" transform="scale(0.015625)"/>
      <path id="DejaVuSans-3d" d="M 678 2906 
L 4684 2906 
L 4684 2381 
L 678 2381 
L 678 2906 
z
M 678 1631 
L 4684 1631 
L 4684 1100 
L 678 1100 
L 678 1631 
z
" transform="scale(0.015625)"/>
      <path id="DejaVuSans-33" d="M 2597 2516 
Q 3050 2419 3304 2112 
Q 3559 1806 3559 1356 
Q 3559 666 3084 287 
Q 2609 -91 1734 -91 
Q 1441 -91 1130 -33 
Q 819 25 488 141 
L 488 750 
Q 750 597 1062 519 
Q 1375 441 1716 441 
Q 2309 441 2620 675 
Q 2931 909 2931 1356 
Q 2931 1769 2642 2001 
Q 2353 2234 1838 2234 
L 1294 2234 
L 1294 2753 
L 1863 2753 
Q 2328 2753 2575 2939 
Q 2822 3125 2822 3475 
Q 2822 3834 2567 4026 
Q 2313 4219 1838 4219 
Q 1578 4219 1281 4162 
Q 984 4106 628 3988 
L 628 4550 
Q 988 4650 1302 4700 
Q 1616 4750 1894 4750 
Q 2613 4750 3031 4423 
Q 3450 4097 3450 3541 
Q 3450 3153 3228 2886 
Q 3006 2619 2597 2516 
z
" transform="scale(0.015625)"/>
      <path id="DejaVuSans-36" d="M 2113 2584 
Q 1688 2584 1439 2293 
Q 1191 2003 1191 1497 
Q 1191 994 1439 701 
Q 1688 409 2113 409 
Q 2538 409 2786 701 
Q 3034 994 3034 1497 
Q 3034 2003 2786 2293 
Q 2538 2584 2113 2584 
z
M 3366 4563 
L 3366 3988 
Q 3128 4100 2886 4159 
Q 2644 4219 2406 4219 
Q 1781 4219 1451 3797 
Q 1122 3375 1075 2522 
Q 1259 2794 1537 2939 
Q 1816 3084 2150 3084 
Q 2853 3084 3261 2657 
Q 3669 2231 3669 1497 
Q 3669 778 3244 343 
Q 2819 -91 2113 -91 
Q 1303 -91 875 529 
Q 447 1150 447 2328 
Q 447 3434 972 4092 
Q 1497 4750 2381 4750 
Q 2619 4750 2861 4703 
Q 3103 4656 3366 4563 
z
" transform="scale(0.015625)"/>
      <path id="DejaVuSans-30" d="M 2034 4250 
Q 1547 4250 1301 3770 
Q 1056 3291 1056 2328 
Q 1056 1369 1301 889 
Q 1547 409 2034 409 
Q 2525 409 2770 889 
Q 3016 1369 3016 2328 
Q 3016 3291 2770 3770 
Q 2525 4250 2034 4250 
z
M 2034 4750 
Q 2819 4750 3233 4129 
Q 3647 3509 3647 2328 
Q 3647 1150 3233 529 
Q 2819 -91 2034 -91 
Q 1250 -91 836 529 
Q 422 1150 422 2328 
Q 422 3509 836 4129 
Q 1250 4750 2034 4750 
z
" transform="scale(0.015625)"/>
      <path id="DejaVuSans-29" d="M 513 4856 
L 1013 4856 
Q 1481 4119 1714 3412 
Q 1947 2706 1947 2009 
Q 1947 1309 1714 600 
Q 1481 -109 1013 -844 
L 513 -844 
Q 928 -128 1133 580 
Q 1338 1288 1338 2009 
Q 1338 2731 1133 3434 
Q 928 4138 513 4856 
z
" transform="scale(0.015625)"/>
     </defs>
     <use xlink:href="#DejaVuSans-42"/>
     <use xlink:href="#DejaVuSans-45" transform="translate(68.603516 0)"/>
     <use xlink:href="#DejaVuSans-4d" transform="translate(131.787109 0)"/>
     <use xlink:href="#DejaVuSans-20" transform="translate(218.066406 0)"/>
     <use xlink:href="#DejaVuSans-28" transform="translate(249.853516 0)"/>
     <use xlink:href="#DejaVuSans-4e" transform="translate(288.867188 0)"/>
     <use xlink:href="#DejaVuSans-3d" transform="translate(363.671875 0)"/>
     <use xlink:href="#DejaVuSans-33" transform="translate(447.460938 0)"/>
     <use xlink:href="#DejaVuSans-36" transform="translate(511.083984 0)"/>
     <use xlink:href="#DejaVuSans-30" transform="translate(574.707031 0)"/>
     <use xlink:href="#DejaVuSans-29" transform="translate(638.330078 0)"/>
    </g>
   </g>
  </g>
 </g>
 <defs>
  <clipPath id="p9759e8973b">
   <rect x="7.2" y="22.318125" width="199.8" height="199.8"/>
  </clipPath>
  <clipPath id="p19d5edd9f5">
   <rect x="217.8" y="22.318125" width="199.8" height="199.8"/>
  </clipPath>
 </defs>
</svg>
